<svg width="217" height="32" viewBox="0 0 217 32" fill="none" xmlns="http://www.w3.org/2000/svg">
<path d="M101.707 11.3043C101.042 11.0409 100.369 11.1325 99.7425 11.4073C98.0085 12.1632 96.6378 13.34 95.5713 14.8632C95.4118 15.0894 95.1696 15.2669 94.948 15.4473C94.6379 15.6993 94.2745 15.9026 93.9998 16.186C93.4739 16.7243 93.022 17.3342 92.4843 17.861C92.1416 18.196 91.7163 18.4651 91.2938 18.7085C91.1461 18.7944 90.8477 18.783 90.7148 18.6856C90.6085 18.6083 90.6055 18.3277 90.641 18.1588C90.703 17.8811 90.8212 17.6148 90.9393 17.3542C91.2406 16.6842 91.5863 16.0286 91.8551 15.3471C92.1298 14.6428 92.0767 13.9728 91.4179 13.4488C91.2466 13.3114 91.1018 13.1396 90.9334 12.9936C90.5907 12.6986 90.4283 12.3207 90.4519 11.8912C90.4785 11.3787 90.5464 10.8691 90.6173 10.3623C90.6823 9.90702 90.4962 9.50904 90.1329 9.4031C89.7281 9.28284 89.3116 9.46322 89.1226 9.89557C88.9867 10.2077 88.9246 10.5512 88.8153 10.8776C88.6794 11.2871 88.582 11.7166 88.3752 12.0916C87.8316 13.068 87.2881 14.0501 86.6529 14.972C85.9351 16.0142 85.1434 17.0164 84.3281 17.9899C84.0415 18.3334 83.6073 18.5883 83.1937 18.7973C82.9633 18.9118 82.597 18.9347 82.3606 18.8402C82.0682 18.7228 82.1598 18.3821 82.2307 18.1302C82.3843 17.5776 82.5083 17.0106 82.7417 16.4895C83.2616 15.3271 83.8406 14.1904 84.3901 13.0394C84.4994 12.8132 84.6087 12.5784 84.6648 12.3379C84.7505 11.9628 84.5201 11.5448 84.1863 11.3816C83.8879 11.2384 83.5127 11.3129 83.2232 11.6049C83.0608 11.7681 82.9012 11.9428 82.7801 12.1346C82.1007 13.2083 81.439 14.2906 80.7595 15.3643C80.1096 16.3893 79.4627 17.4258 78.5085 18.2161C78.1333 18.5281 77.6784 18.7916 77.2146 18.9576C76.6474 19.1609 76.2752 18.846 76.3372 18.2705C76.3757 17.9126 76.479 17.5489 76.6208 17.2139C77.2855 15.6621 77.9827 14.1188 78.6503 12.5669C78.7478 12.3407 78.8335 12.063 78.7803 11.8426C78.7271 11.6164 78.5351 11.3444 78.3283 11.2556C78.1392 11.1726 77.8202 11.2556 77.6164 11.3644C77.4391 11.4589 77.2973 11.6765 77.2146 11.8683C76.6681 13.1367 75.8646 14.2562 75.0109 15.3385C74.2871 16.2548 73.5427 17.1567 72.751 18.0185C72.302 18.5052 71.7289 18.8803 71.014 18.9347C70.4468 18.9777 70.243 18.7687 70.2223 18.2218C70.1957 17.569 70.4261 16.982 70.692 16.4065C71.138 15.4473 71.6018 14.4939 72.0656 13.5433C72.6919 12.2606 73.3241 10.9807 73.9651 9.7066C74.1305 9.37733 74.4289 9.22271 74.81 9.25994C75.903 9.36301 76.9931 9.47754 78.0831 9.57489C78.4553 9.60638 78.8364 9.63502 79.2057 9.58634C79.6074 9.5348 79.8408 9.23703 79.8644 8.88199C79.894 8.47542 79.699 8.16333 79.2972 8.03162C79.0639 7.95431 78.8157 7.9085 78.5705 7.87987C77.6459 7.77966 76.7154 7.70808 75.7907 7.59641C75.3417 7.54201 75.262 7.34159 75.4451 6.94646C75.6135 6.58284 75.7996 6.21921 75.9266 5.84126C76.0418 5.49195 75.8882 5.15123 75.6164 4.99948C75.3447 4.84773 74.9104 4.90213 74.6593 5.13119C74.5589 5.22281 74.4703 5.33734 74.4023 5.45473C74.1246 5.93289 73.8647 6.4225 73.587 6.90065C73.457 7.12112 73.3093 7.33872 72.9962 7.32727C72.5708 7.31295 72.1483 7.30436 71.723 7.2786C70.946 7.22992 70.1721 7.14689 69.3951 7.12685C68.8368 7.11253 68.5178 7.45611 68.5266 7.95431C68.5325 8.31794 68.7275 8.6014 69.1588 8.67584C69.9475 8.81041 70.7452 8.89345 71.5398 8.97362C72.1247 9.03088 72.2842 9.29143 72.0213 9.80395C71.5693 10.6858 71.138 11.5763 70.6861 12.4581C69.9948 13.8124 69.4631 15.2355 68.3198 16.3636C67.3214 17.3485 66.3879 18.3764 65.0644 18.9548C64.7956 19.0721 64.4766 19.1237 64.1782 19.138C63.8149 19.1552 63.5844 18.8746 63.6583 18.5224C63.7174 18.2332 63.8119 17.944 63.933 17.672C64.1428 17.1996 64.3879 16.7415 64.6125 16.2748C65.0142 15.433 65.3982 14.5855 65.5223 13.6492C65.7114 12.2434 64.7927 11.2556 63.3836 11.267C62.4057 11.2756 61.5461 11.6421 60.7692 12.2033C60.589 12.3322 60.4088 12.461 60.2138 12.5727C60.1429 12.6128 60.01 12.6357 59.9598 12.5984C59.9036 12.5584 59.883 12.4324 59.8977 12.3522C59.9273 12.209 59.9982 12.0716 60.0454 11.9313C60.1222 11.7051 60.2197 11.4789 60.267 11.2441C60.3408 10.8776 60.1577 10.5026 59.8652 10.3623C59.5314 10.1991 59.1415 10.2621 58.8608 10.5398C58.7397 10.66 58.6156 10.7946 58.5418 10.9464C58.1666 11.7108 57.821 12.4896 57.434 13.2484C57.1327 13.8411 56.8786 14.4882 56.4414 14.972C55.7265 15.7594 54.8876 16.438 54.087 17.1481C53.4224 17.7379 52.7045 18.2619 51.8685 18.6026C50.9882 18.9633 50.1581 18.8545 49.4077 18.279C49.1123 18.0528 49.0237 17.6778 49.1478 17.3113C49.26 16.9791 49.5052 16.8675 49.8538 16.8589C50.2053 16.8474 50.5657 16.8188 50.9055 16.7386C52.2378 16.4237 53.2392 15.622 54.0929 14.6256C54.5272 14.1188 54.7546 13.5261 54.7931 12.8619C54.861 11.7309 54.0545 10.8576 52.8877 10.912C52.4209 10.932 51.9305 11.0781 51.5111 11.2814C50.7105 11.665 50.0783 12.272 49.5052 12.9392C48.424 14.1904 47.6205 15.5733 47.3576 17.2053C47.2719 17.7293 47.2897 18.2504 47.5437 18.7486C48.0459 19.7278 48.938 20.2003 49.9631 20.4322C51.2865 20.7299 52.5125 20.4035 53.638 19.6906C54.1727 19.3499 54.2997 19.41 54.4297 20.0084C54.5685 20.6555 55.3041 20.896 55.7945 20.4408C55.9776 20.2718 56.1313 20.0571 56.2494 19.8366C56.6423 19.1065 56.9673 18.3392 57.4045 17.6348C58.081 16.5411 59.1149 15.7508 60.072 14.9033C60.6274 14.4108 61.2182 13.947 61.8327 13.5233C62.1812 13.2827 62.5948 13.1052 63.0084 12.9907C63.5253 12.8447 63.8385 13.1539 63.7587 13.6693C63.7292 13.8611 63.6878 14.0558 63.6051 14.2333C63.2063 15.1009 62.7721 15.9513 62.3969 16.8274C62.1724 17.3514 61.9922 17.9011 61.8592 18.4566C61.5107 19.9282 62.6746 20.9161 64.0335 20.9361C64.8606 20.9476 65.6257 20.7214 66.3258 20.3234C66.8546 20.0227 67.3391 19.6562 67.8413 19.3127C68.2017 19.0664 68.4291 19.0893 68.6005 19.4071C69.1263 20.3778 70.1366 20.8502 71.2592 20.687C72.2961 20.5381 73.1321 20.0256 73.909 19.3871C74.3226 19.0464 74.4968 19.0836 74.7332 19.5532C75.0522 20.1888 75.584 20.5667 76.3018 20.6441C76.9635 20.7128 77.64 20.7156 78.2397 20.3864C78.7803 20.0886 79.2943 19.745 79.7935 19.3842C80.2101 19.0836 80.3194 19.0893 80.5675 19.5245C80.9752 20.2375 81.5837 20.6326 82.4493 20.6641C83.5541 20.7042 84.4019 20.1716 85.1759 19.5188C86.2778 18.5854 87.1551 17.463 87.9173 16.2576C88.3013 15.6535 88.6706 15.0408 89.0635 14.4423C89.3146 14.0587 89.5952 14.0472 89.9261 14.365C90.1654 14.5941 90.2067 14.8661 90.1033 15.1553C90.0236 15.3815 89.9084 15.5962 89.8079 15.8167C89.542 16.4036 89.223 16.9734 89.028 17.5804C88.8774 18.05 88.7828 18.5768 88.839 19.0578C88.9778 20.2747 90.3426 20.9189 91.6572 20.4408C92.5523 20.1144 93.2642 19.5389 93.9259 18.8918C94.3661 18.4594 94.5581 18.4966 94.8653 19.0063C95.338 19.788 96.0292 20.2947 96.9509 20.4665C97.8342 20.6297 98.7175 20.5438 99.5151 20.1659C100.389 19.7507 101.228 19.2525 102.047 18.74C102.516 18.4451 102.617 17.8581 102.36 17.5002C102.085 17.1166 101.574 17.0507 101.06 17.3313C101.01 17.36 100.96 17.3914 100.909 17.4229C100.605 17.6176 100.319 17.8553 99.9907 18.0013C99.3526 18.2876 98.7086 18.6026 98.0321 18.7629C97.0513 18.9948 96.3394 18.3878 96.3837 17.4716C96.4044 17.0421 96.6289 16.8532 97.075 16.8904C97.3674 16.9162 97.6599 16.9476 97.9553 16.9734C97.9553 16.9648 97.9583 16.9534 97.9583 16.9448C98.1237 16.9448 98.2891 16.9534 98.4545 16.9419C98.6554 16.9276 98.8533 16.9047 99.0513 16.8675C100.803 16.5583 102.041 15.5962 102.732 14.0243C103.243 12.8619 102.779 11.728 101.707 11.3043ZM50.359 14.6743C50.8257 14.136 51.3013 13.6006 51.8065 13.0938C51.9955 12.9048 52.2584 12.7645 52.5125 12.6557C52.8138 12.5269 53.0738 12.7216 53.062 13.0966C53.0176 13.1854 52.9645 13.3515 52.8699 13.4889C52.3973 14.1847 51.7178 14.6514 50.9705 15.0293C50.8877 15.0722 50.7932 15.1152 50.7046 15.1123C50.5717 15.1123 50.3855 15.1152 50.3265 15.0408C50.2644 14.9692 50.2881 14.7573 50.359 14.6743ZM100.918 13.8611C100.271 14.8174 99.3408 15.3099 98.0469 15.3643C97.9967 15.3385 97.7869 15.2927 97.7485 15.1868C97.7101 15.078 97.7987 14.8776 97.8962 14.7745C98.555 14.0787 99.3024 13.4832 100.171 13.0508C100.437 12.9191 100.753 12.7445 101.022 13.0193C101.308 13.3114 101.087 13.612 100.918 13.8611Z" fill="#4D6059"/>
<path d="M216.925 11.5562C216.668 10.7602 215.809 10.5569 215.197 11.1496C214.831 11.5046 214.497 11.8969 214.128 12.2491C212.078 14.2132 209.836 15.9397 207.339 17.3398C206.486 17.8209 205.626 18.3277 204.622 18.4708C203.939 18.5682 203.278 18.5367 202.746 18.0098C202.344 17.6118 202.377 17.1165 202.385 16.624C202.391 16.1831 202.471 16.0943 202.932 16.1087C204.016 16.143 205.047 15.9197 206.028 15.4931C207.419 14.8889 208.524 13.987 209.136 12.5841C209.658 11.3872 208.991 10.1446 207.676 9.91268C206.737 9.74948 205.836 9.88118 204.997 10.3193C203.038 11.3443 201.573 12.8102 200.728 14.8288C200.648 15.0206 200.489 15.1896 200.335 15.3413C200.146 15.5274 199.91 15.6649 199.718 15.851C199.325 16.2318 198.97 16.6498 198.566 17.0163C197.937 17.5861 197.334 18.1988 196.524 18.5338C196.161 18.6856 195.751 18.8946 195.387 18.6082C195.012 18.3133 195.101 17.8638 195.222 17.4859C195.505 16.604 195.774 15.7049 196.167 14.866C197.381 12.2662 198.778 9.75807 200.329 7.33293C200.69 6.76888 200.784 6.72593 201.452 6.84618C202.719 7.07238 203.998 7.22985 205.289 7.17259C206.252 7.12964 207.189 6.93781 208.028 6.43674C208.893 5.9185 209.555 5.22847 209.939 4.29506C210.775 2.26505 209.437 0.252215 207.077 0.0231581C205.724 -0.10855 204.539 0.338111 203.399 0.942248C202.078 1.64373 201.151 2.73748 200.338 3.93716C199.931 4.5413 199.86 4.55275 199.142 4.35519C197.233 3.83123 195.334 3.2729 193.414 2.79474C190.415 2.05031 187.408 2.0274 184.427 2.90068C182.676 3.4132 181.172 4.30365 180.147 5.82688C179.869 6.23918 179.571 6.64862 179.639 7.18404C179.68 7.51904 179.843 7.771 180.182 7.8798C180.51 7.98574 180.818 7.94566 181.06 7.6851C181.202 7.53335 181.346 7.37588 181.45 7.19836C182.117 6.05594 183.137 5.33155 184.374 4.87343C185.848 4.32656 187.376 4.06887 189 4.16049C190.788 4.02306 192.516 4.50408 194.241 4.99082C195.532 5.35732 196.817 5.74957 198.108 6.1132C198.604 6.2535 198.654 6.33653 198.4 6.76601C197.739 7.88839 197.083 9.01363 196.421 10.136C196.152 10.5941 195.907 11.0694 195.585 11.4903C195.151 12.0572 194.625 12.5583 194.194 13.1281C192.968 14.7429 191.562 16.186 189.934 17.42C189.012 18.1215 188.005 18.6655 186.776 18.6541C186.327 18.6512 185.981 18.4708 185.73 18.1129C185.299 17.4973 185.29 16.813 185.429 16.1287C185.689 14.8202 186.427 13.7637 187.417 12.8761C187.757 12.5726 188.188 12.3521 188.605 12.1431C188.921 11.9856 189.074 12.1317 189.003 12.4753C188.941 12.7788 188.847 13.0765 188.817 13.3829C188.746 14.1474 189.402 14.6914 190.02 14.3621C190.271 14.2275 190.483 13.9355 190.596 13.6692C190.799 13.1825 190.918 12.6642 191.062 12.1574C191.237 11.5476 190.929 10.8117 190.371 10.4882C189.659 10.073 188.921 10.0673 188.159 10.3422C186.962 10.7716 185.999 11.5018 185.204 12.4581C184.032 13.8696 183.323 15.4329 183.45 17.2912C183.515 18.2246 183.831 19.0492 184.519 19.6963C185.565 20.6812 186.826 20.7871 188.179 20.435C189.668 20.0513 190.912 19.2668 192.037 18.279C192.256 18.0871 192.471 17.8896 192.702 17.7149C192.793 17.6462 192.938 17.5947 193.045 17.6118C193.098 17.6204 193.145 17.798 193.157 17.9039C193.177 18.0728 193.157 18.2475 193.172 18.4193C193.287 19.722 194.061 20.7356 195.677 20.7127C196.793 20.6984 197.742 20.2603 198.592 19.6104C199.121 19.2067 199.617 18.7657 200.12 18.3305C200.32 18.1559 200.465 18.1559 200.577 18.4078C200.616 18.4909 200.669 18.5682 200.713 18.6483C201.248 19.6018 202.063 20.1687 203.165 20.3977C204.164 20.6039 205.124 20.4636 206.051 20.1315C206.737 19.8852 207.387 19.5502 208.045 19.241C208.317 19.1122 208.494 19.1523 208.684 19.3842C209.277 20.1086 210.066 20.5209 211.008 20.6325C212.391 20.7957 213.576 20.3663 214.544 19.4071C215.307 18.6483 215.812 17.7436 216.163 16.7386C216.692 15.2297 217.017 13.695 216.999 12.0973C216.999 11.9141 216.982 11.7251 216.925 11.5562ZM203.567 13.9126C204.385 12.9219 205.357 12.1259 206.639 11.7652C206.811 11.7165 207.029 11.8167 207.224 11.8511C207.18 12.0372 207.192 12.2662 207.082 12.4065C206.249 13.4688 205.115 14.0414 203.735 14.2733C203.67 14.2447 203.549 14.2218 203.502 14.1531C203.473 14.1073 203.517 13.9756 203.567 13.9126ZM202.199 4.55848C202.569 3.84554 203.239 3.41606 203.833 2.91786C204.619 2.25932 205.537 1.89283 206.583 1.973C206.967 2.00164 207.363 2.1448 207.712 2.31659C208.102 2.51129 208.187 2.90927 208.096 3.30439C207.898 4.16622 207.28 4.69019 206.462 4.96219C205.933 5.13685 205.36 5.18839 204.855 5.28287C203.998 5.1798 203.201 5.08531 202.406 4.98796C202.114 4.9536 202.069 4.81331 202.199 4.55848ZM214.565 15.0435C214.237 16.1917 213.898 17.3341 212.926 18.1702C212.261 18.74 211.36 18.8688 210.672 18.4737C210.164 18.1816 210.184 17.9783 210.654 17.6319C211.759 16.8159 212.84 15.9684 213.93 15.1352C214.101 15.0035 214.27 14.8718 214.527 14.6713C214.55 14.8746 214.586 14.9662 214.565 15.0435Z" fill="#4D6059"/>
<path d="M184.519 11.3183C184.54 10.9776 184.389 10.6827 184.043 10.5453C183.683 10.4021 183.355 10.4679 183.072 10.7428C182.747 11.0549 182.404 11.3498 182.073 11.6562C181.979 11.7421 181.89 11.8366 181.819 11.9425C181.305 12.6841 180.791 13.4228 180.289 14.1729C179.302 15.6475 178.206 17.0361 176.812 18.1757C176.558 18.3847 176.236 18.5365 175.923 18.651C175.565 18.7798 175.344 18.5794 175.403 18.2072C175.45 17.9152 175.497 17.6117 175.615 17.3396C176.094 16.2316 176.584 15.1264 177.095 14.0326C177.397 13.3856 177.76 12.7671 178.064 12.1229C178.153 11.9339 178.194 11.6991 178.174 11.493C178.138 11.1379 177.926 10.8688 177.556 10.7743C177.14 10.6655 176.818 10.8316 176.57 11.1523C176.363 11.4157 176.177 11.6934 175.952 11.9425C175.672 12.2517 175.326 12.5066 175.075 12.8301C173.943 14.2989 172.641 15.596 171.125 16.6954C169.616 17.792 168.074 18.8428 166.201 19.2523C165.681 19.3668 165.075 19.3754 164.567 19.2322C163.371 18.8944 162.747 18.0096 162.47 16.8529C161.976 14.7885 162.479 12.8444 163.235 10.949C163.784 9.5689 164.535 8.28618 165.471 7.10368C166.387 5.9498 167.4 4.90187 168.732 4.19752C169.379 3.8568 170.077 3.62774 170.833 3.66783C171.663 3.71077 172.455 4.36072 172.192 5.37716C171.834 6.76009 171.235 8.00559 170.289 9.09361C169.719 9.75214 169.075 10.3162 168.156 10.4765C168.041 10.4966 167.929 10.5453 167.828 10.5997C167.456 10.7972 167.252 11.1837 167.326 11.5416C167.409 11.9425 167.678 12.1916 168.136 12.2403C168.354 12.2632 168.585 12.2517 168.803 12.2174C169.625 12.0885 170.286 11.6734 170.901 11.1437C172.257 9.97261 173.004 8.40071 173.905 6.93188C173.935 6.88321 173.949 6.82594 173.97 6.77154C174.342 5.82955 174.313 4.89042 173.949 3.95415C173.491 2.78023 172.596 2.0902 171.341 1.88691C169.911 1.65499 168.594 2.05011 167.388 2.7745C165.684 3.8024 164.372 5.22255 163.25 6.81449C162.142 8.38639 161.338 10.09 160.768 11.9167C160.16 13.8666 160.018 15.8078 160.606 17.7663C161.096 19.3983 162.174 20.5379 163.852 21.099C165.134 21.5257 166.399 21.3367 167.639 20.9215C169.379 20.3374 170.892 19.3582 172.336 18.2759C172.688 18.0125 173.048 17.7634 173.491 17.4456C173.491 17.7491 173.515 17.9552 173.489 18.1585C173.302 19.5271 173.943 20.3632 175.347 20.5837C176.079 20.6982 176.717 20.4462 177.347 20.1399C177.465 20.0826 177.589 20.0282 177.71 19.9738C177.745 19.9996 177.781 20.0282 177.816 20.054C177.701 20.2916 177.607 20.5378 177.471 20.7612C176.98 21.5572 176.481 22.3474 175.979 23.1348C175.305 24.1827 174.658 25.2478 173.94 26.2671C173.184 27.3351 172.336 28.3401 171.261 29.1303C170.564 29.6429 169.808 30.038 168.892 29.9922C168.396 29.9664 168.035 29.6457 168.02 29.1676C168.012 28.8297 168.029 28.4747 168.127 28.1511C168.534 26.7739 169.403 25.6802 170.511 24.7697C171.607 23.8706 172.889 23.4297 174.345 23.5328C174.558 23.5471 174.771 23.5471 174.983 23.5328C175.545 23.4984 175.884 23.2207 175.926 22.7797C175.976 22.2329 175.672 21.7862 175.11 21.7032C173.722 21.5028 172.345 21.56 171.048 22.1384C168.774 23.152 167.282 24.8871 166.331 27.086C165.979 27.8992 165.823 28.7581 166.035 29.64C166.26 30.5705 166.688 31.3865 167.66 31.753C168.673 32.1338 169.704 32.0479 170.709 31.6729C172.496 31.0029 173.793 29.7402 174.909 28.3C175.66 27.3322 176.378 26.3301 177.007 25.285C178.372 23.0231 179.704 20.7383 180.983 18.4334C182.147 16.3375 183.231 14.1987 184.336 12.0742C184.442 11.8451 184.504 11.5731 184.519 11.3183Z" fill="#4D6059"/>
<path d="M155.788 10.7573C155.389 10.5855 154.978 10.6399 154.668 10.9434C153.082 12.4953 151.516 14.07 149.93 15.6219C149.082 16.4494 148.213 17.2568 147.336 18.0528C147.147 18.2245 146.851 18.445 146.618 18.2303C146.476 18.1014 146.479 17.775 146.497 17.5402C146.553 16.7729 146.538 16.0342 146.03 15.3785C145.773 15.0492 145.844 14.8259 146.193 14.5596C146.831 14.07 147.49 13.6005 148.095 13.0765C148.461 12.7615 148.775 12.3779 149.058 11.9856C149.306 11.6449 149.229 11.3242 148.937 11.0579C148.686 10.8317 148.269 10.8031 147.959 11.0207C147.77 11.1524 147.614 11.3299 147.433 11.4788C146.813 11.9885 146.199 12.5067 145.558 12.9906C145.383 13.1194 145.117 13.1338 144.893 13.1996C144.922 12.9706 144.905 12.7243 144.987 12.5182C145.318 11.6993 145.682 10.889 146.036 10.0787C146.781 8.36938 147.534 6.66577 148.263 4.95357C148.373 4.69588 148.423 4.40097 148.423 4.12038C148.426 3.68803 148.045 3.3874 147.599 3.40744C147.153 3.42462 146.884 3.69662 146.701 4.04307C146.509 4.40956 146.355 4.7961 146.193 5.17404C145.339 7.14679 144.494 9.12527 143.623 11.0923C143.513 11.3385 143.277 11.5418 143.067 11.7365C142.857 11.9312 142.565 12.0543 142.388 12.2719C141.735 13.0708 141.088 13.8753 140.491 14.7114C139.714 15.7965 138.908 16.8531 137.909 17.7521C137.638 17.9955 137.31 18.2016 136.973 18.3448C136.669 18.4736 136.471 18.3047 136.459 17.984C136.453 17.8495 136.45 17.6977 136.503 17.5775C136.686 17.1566 136.864 16.7299 137.097 16.3348C137.425 15.7794 137.818 15.2583 138.152 14.7057C138.527 14.0843 138.465 13.5088 138.004 12.9591C137.803 12.7186 137.558 12.5096 137.398 12.2462C136.991 11.5848 137.014 10.8747 137.233 10.156C137.295 9.94987 137.363 9.73799 137.378 9.52612C137.407 9.09664 137.236 8.82463 136.917 8.72728C136.571 8.61848 136.243 8.72728 135.995 9.07373C135.638 9.57479 135.457 10.136 135.463 10.7516C135.475 11.9799 134.707 12.7644 133.756 13.3914C133.144 13.7952 132.391 13.4344 132.305 12.7558C132.252 12.3349 131.978 12.0515 131.682 11.7508C131.254 11.3185 130.681 11.1581 130.184 10.8604C129.706 10.5741 129.201 10.5025 128.654 10.5998C127.709 10.7659 126.935 11.2412 126.273 11.8797C124.84 13.2597 123.993 14.929 123.789 16.8817C123.709 17.6548 123.807 18.4278 124.267 19.0921C125.198 20.4349 126.849 20.6125 128.223 19.5989C129.647 18.5509 130.622 17.1852 131.375 15.6448C131.703 14.9719 131.756 14.9347 132.512 15.0807C133.614 15.2926 134.571 15.0321 135.366 14.2533C135.531 14.0901 135.688 13.9097 135.88 13.7837C135.986 13.7121 136.193 13.672 136.288 13.7264C136.385 13.7808 136.435 13.9698 136.441 14.1015C136.444 14.2161 136.37 14.342 136.305 14.4451C136.063 14.8231 135.797 15.1895 135.561 15.5732C135.071 16.3663 134.692 17.1995 134.684 18.1501C134.686 19.1809 135.215 19.8795 136.208 20.1171C136.849 20.2689 137.484 20.1429 138.004 19.785C138.666 19.3326 139.254 18.78 139.871 18.2704C140.007 18.1587 140.134 18.0384 140.273 17.9382C140.32 17.9039 140.438 17.8781 140.459 17.9039C140.503 17.9525 140.539 18.0499 140.521 18.11C140.438 18.3963 140.323 18.6741 140.243 18.9604C140.187 19.1694 140.155 19.3841 140.14 19.5989C140.119 19.9396 140.311 20.1601 140.615 20.2946C140.928 20.4321 141.23 20.3834 141.463 20.1458C141.646 19.9568 141.821 19.7449 141.93 19.5101C142.346 18.5996 142.725 17.6748 143.141 16.7643C143.324 16.3606 143.945 16.1487 144.417 16.2862C144.781 16.3892 144.925 16.7271 144.863 17.2568C144.813 17.6662 144.748 18.0785 144.763 18.4851C144.795 19.4844 145.41 20.014 146.438 20.0455C147.247 20.0713 147.903 19.7363 148.515 19.2897C149.023 18.9203 149.091 18.9088 149.546 19.3526C149.614 19.4185 149.679 19.4844 149.746 19.5473C150.367 20.1171 151.099 20.3519 151.95 20.266C152.975 20.1601 153.699 19.6075 154.116 18.7456C154.544 17.8581 154.916 16.9361 155.2 15.997C155.539 14.8689 155.761 13.7064 156.03 12.5554C156.101 12.2548 156.183 11.957 156.228 11.6535C156.287 11.2669 156.172 10.9234 155.788 10.7573ZM129.777 14.7944C129.207 16.1688 128.344 17.3455 127.124 18.2532C126.406 18.7886 125.703 18.4994 125.532 17.6404C125.375 16.8617 125.588 16.1344 125.863 15.4272C126.32 14.2475 127.015 13.2225 128.128 12.5182C128.276 12.4265 128.439 12.3521 128.604 12.2948C129.52 11.9913 130.152 12.438 130.229 13.4C130.081 13.8639 129.963 14.342 129.777 14.7944ZM153.566 15.1466C153.235 16.0857 152.896 17.022 152.517 17.9439C152.361 18.3276 152 18.508 151.619 18.5166C151.235 18.5252 151.017 18.2875 150.839 18.0069C150.665 17.7321 150.639 17.4314 150.857 17.1709C151.179 16.7901 151.516 16.4264 151.865 16.0685C152.26 15.662 152.671 15.264 153.09 14.8775C153.188 14.7858 153.353 14.7658 153.489 14.7114C153.519 14.8574 153.61 15.0235 153.566 15.1466Z" fill="#4D6059"/>
<path d="M29.4588 3.2328C29.6774 2.67161 29.5001 2.19059 28.995 2.02453C28.6139 1.90141 28.1826 1.83555 27.7838 1.86419C26.6878 1.94149 25.6834 2.34807 24.7824 2.92071C23.778 3.55921 22.7884 4.23779 21.8874 5.00226C20.7442 5.97575 19.6925 7.04659 18.6202 8.09167C18.3366 8.36653 18.0471 8.56696 17.6365 8.54978C15.9999 8.47247 14.4815 8.90482 13.0281 9.58626C12.1094 10.0157 11.2527 10.5454 10.5112 11.2297C10.2365 11.4817 10.1715 11.9541 10.331 12.2433C10.4905 12.5296 10.8893 12.6957 11.2911 12.5468C11.6692 12.4065 12.0267 12.1889 12.3605 11.9627C13.3265 11.307 14.3486 10.7659 15.4918 10.4767C15.7134 10.4195 15.9645 10.4824 16.2037 10.4882C16.1122 10.6972 16.0649 10.9377 15.9231 11.1095C15.3412 11.8138 14.7297 12.4981 14.13 13.191C12.6972 14.8517 11.2261 16.4751 9.45364 17.8123C8.18634 18.7657 6.77133 19.2295 5.1643 19.0663C4.00925 18.9489 3.15552 18.3849 2.49971 17.4515C1.10538 15.4616 1.88821 12.7129 3.25301 11.2526C3.87041 10.5912 4.66802 10.1875 5.50402 9.86113C6.6768 9.40015 7.87616 9.09379 9.16414 9.28849C9.38275 9.32284 9.61612 9.31425 9.83472 9.2799C10.2365 9.21691 10.4699 8.92772 10.4758 8.53833C10.4817 8.06017 10.0947 7.68509 9.48909 7.60778C9.11392 7.55911 8.73875 7.54193 8.36063 7.51043C8.36063 7.51902 8.36063 7.52475 8.35768 7.53334C8.20406 7.53334 8.05045 7.52761 7.89684 7.5362C7.74323 7.54479 7.59257 7.57056 7.43895 7.58774C5.58378 7.78244 3.897 8.41234 2.46426 9.56622C0.0153199 11.5361 -0.776377 15.579 0.857236 18.2131C1.66075 19.5101 2.7774 20.4722 4.37556 20.6955C6.64135 21.0133 8.72694 20.6239 10.5673 19.1809C12.071 18.0012 13.4299 16.6899 14.6765 15.2669C15.9526 13.8095 17.1963 12.3292 18.4489 10.8547C18.7118 10.5426 19.0279 10.4853 19.3971 10.5912C19.5448 10.6342 19.6866 10.6915 19.8314 10.743C21.075 11.1925 22.0706 11.9112 22.6141 13.128C22.7796 13.5003 22.8652 13.8668 22.7027 14.2562C22.1917 15.4759 21.6718 16.6899 21.1696 17.9125C20.9539 18.4422 20.7412 18.9776 20.5876 19.5273C20.4783 19.9253 20.7087 20.2861 21.0573 20.4321C21.3793 20.5667 21.787 20.4693 22.044 20.163C22.1769 20.0055 22.2833 19.8194 22.363 19.6333C23.5565 16.9046 24.744 14.1731 25.9316 11.4416C26.7558 9.54331 27.577 7.64214 28.3953 5.74097C28.7586 4.90778 29.1309 4.07745 29.4588 3.2328ZM27.0837 4.22347C26.8798 4.74744 26.6553 5.26282 26.4308 5.78106C25.7218 7.4274 25.0069 9.07088 24.298 10.7144C24.2802 10.7573 24.2655 10.8003 24.2448 10.8403C23.9287 11.5533 23.7396 11.5791 23.2227 10.9978C22.5698 10.2677 21.7545 9.75233 20.8476 9.36007C20.2361 9.09665 20.1918 8.86473 20.6526 8.40375C21.976 7.08095 23.329 5.78965 24.9154 4.75603C25.3732 4.45539 25.8577 4.19198 26.3392 3.9257C26.4899 3.84266 26.6642 3.79972 26.7735 3.75963C27.0925 3.7539 27.1989 3.9257 27.0837 4.22347Z" fill="#4D6059"/>
<path d="M130.028 3.54768C130.223 3.24991 130.379 2.88341 130.409 2.53983C130.456 1.96432 129.783 1.58638 129.257 1.86411C129.056 1.97005 128.861 2.13039 128.734 2.31077C128.312 2.90346 127.922 3.51905 127.514 4.12032C126.35 5.84397 125.18 7.56476 124.016 9.28841C123.071 10.6857 122.138 12.0886 121.183 13.483C121.08 13.6319 120.882 13.7207 120.731 13.8381C120.725 13.6405 120.669 13.4315 120.72 13.2511C121.074 11.9798 121.455 10.7172 121.816 9.44875C121.94 9.01068 122.09 8.56402 122.12 8.1145C122.152 7.61916 121.913 7.19254 121.408 6.98639C120.935 6.79456 120.587 7.0322 120.288 7.35575C120.005 7.66211 119.739 7.98565 119.461 8.29488C118.383 9.49456 117.308 10.6942 116.22 11.8853C116.082 12.0371 115.887 12.143 115.718 12.269C115.721 12.0543 115.668 11.8224 115.739 11.6305C116.123 10.574 116.539 9.52606 116.935 8.4724C117.346 7.38438 117.556 6.27059 117.384 5.10526C117.216 3.97716 116.705 3.06666 115.662 2.48543C114.581 1.88415 113.426 1.57206 112.167 1.71523C111.73 1.71523 111.287 1.66655 110.859 1.72382C109.063 1.96146 107.568 2.75743 106.416 4.11173C105.24 5.49466 104.611 7.0637 104.924 8.8847C105.181 10.3822 106.162 11.642 107.727 11.8768C108.596 12.0056 109.376 11.8538 109.973 11.1695C110.297 10.7945 110.268 10.3335 109.89 10.05C109.621 9.8496 109.334 9.90973 109.051 10.0128C108.809 10.0987 108.575 10.239 108.327 10.2648C107.597 10.3363 106.948 9.8267 106.691 9.06222C106.242 7.73083 106.667 6.55405 107.476 5.51757C109.01 3.54768 111.101 2.9779 113.523 3.50759C115.231 3.87981 115.904 4.81035 115.6 6.48819C115.417 7.49318 115.033 8.46953 114.667 9.43157C113.47 12.5668 112.235 15.6848 111.024 18.8172C110.906 19.1235 110.844 19.4557 110.806 19.7821C110.758 20.1743 111.006 20.4377 111.346 20.5895C111.671 20.7355 111.981 20.6239 112.221 20.3891C112.395 20.2201 112.54 20.0226 112.673 19.8222C113.352 18.8029 113.978 17.7521 114.705 16.7642C115.671 15.45 116.696 14.1788 117.718 12.9046C118.108 12.4179 118.554 11.9741 118.985 11.5189C119.045 11.4559 119.195 11.4015 119.254 11.433C119.319 11.4645 119.37 11.6076 119.361 11.6906C119.331 11.9168 119.275 12.1402 119.21 12.3606C118.563 14.5968 117.907 16.833 117.266 19.072C117.198 19.3096 117.178 19.5702 117.195 19.8164C117.228 20.2574 117.55 20.5065 118.008 20.5093C118.578 20.5151 118.879 20.1285 119.142 19.7391C120.324 18.0012 121.488 16.2489 122.663 14.5052C124.179 12.2518 125.694 9.99849 127.213 7.74514C128.146 6.3479 129.103 4.95924 130.028 3.54768Z" fill="#4D6059"/>
<path d="M47.9809 12.1716C48.1818 11.6935 48.0223 11.2067 47.6826 11.0407C47.2631 10.8374 46.7993 10.9548 46.4832 11.4043C45.9367 12.1802 45.4345 12.9819 44.8939 13.7578C44.3681 14.5166 43.8216 15.2639 43.2721 16.0083C43.2042 16.0999 43.0446 16.1286 42.9265 16.1858C42.8969 16.0627 42.8172 15.931 42.8438 15.8194C43.0565 14.8688 43.2957 13.9239 43.5055 12.9733C43.5823 12.6297 43.6355 12.2747 43.6355 11.9254C43.6384 11.5675 43.4316 11.2783 43.086 11.1495C42.7315 11.0149 42.3622 11.0578 42.1259 11.3757C41.8305 11.7708 41.5558 12.1859 41.3165 12.6154C40.1349 14.7428 38.5899 16.5953 36.782 18.2474C36.4718 18.5308 36.0789 18.7599 35.686 18.9259C35.0656 19.1865 34.6107 18.903 34.593 18.2502C34.5812 17.8207 34.6048 17.3684 34.7407 16.9618C35.2872 15.3068 35.8367 13.649 36.4688 12.0227C37.3876 9.65487 38.3801 7.31562 39.3284 4.9592C39.485 4.56981 39.6031 4.15751 39.6681 3.7452C39.7154 3.44457 39.485 3.22983 39.2102 3.11244C38.9384 2.99504 38.6608 3.05231 38.4569 3.2556C38.2974 3.41594 38.1468 3.60777 38.0581 3.81392C36.9858 6.31923 35.9194 8.8274 34.8618 11.3384C34.6166 11.9168 34.4305 11.9855 34.011 11.5274C33.2193 10.6627 31.8782 10.6255 30.9506 11.1208C29.8517 11.7078 29.0216 12.5725 28.3037 13.5517C27.3171 14.8945 26.7056 16.3748 26.5135 18.0154C26.4042 18.9431 26.9035 19.951 27.7011 20.3003C28.4691 20.6353 29.2786 20.6725 30.085 20.4148C30.9092 20.1514 31.5296 19.6102 32.1145 19.0176C32.5635 18.5652 32.7614 18.6138 32.9653 19.1951C33.37 20.3461 34.3567 20.9073 35.5885 20.7469C36.6077 20.6152 37.3964 20.0941 38.1024 19.4413C38.8203 18.777 39.482 18.0612 40.1792 17.3769C40.2678 17.2882 40.4096 17.2481 40.5248 17.1851C40.5602 17.3168 40.6341 17.4542 40.6252 17.5831C40.575 18.1643 40.5041 18.7427 40.4391 19.3211C40.445 19.3211 40.4539 19.3211 40.4598 19.3239C40.4598 19.4499 40.4539 19.5759 40.4598 19.7019C40.4894 20.2316 40.8202 20.5465 41.3608 20.5751C41.7123 20.5952 42.0284 20.5064 42.2529 20.243C42.7167 19.6961 43.1923 19.155 43.6118 18.5766C44.8703 16.8329 46.108 15.0749 47.3399 13.3112C47.588 12.9533 47.8125 12.5696 47.9809 12.1716ZM32.4099 15.3727C31.9579 16.2632 31.4912 17.1565 30.7615 17.878C30.3243 18.3103 29.893 18.7513 29.2165 18.8372C28.5725 18.9173 28.2033 18.6053 28.2801 17.9753C28.4691 16.4292 29.1397 15.0806 30.1678 13.9039C30.5518 13.4658 31.0244 13.0964 31.4882 12.7271C31.8014 12.478 32.1883 12.3549 32.5783 12.5467C33.0037 12.7557 32.9948 13.1737 33.0125 13.5631C33.0598 14.2475 32.6965 14.8058 32.4099 15.3727Z" fill="#4D6059"/>
</svg>
