<svg width="272" height="165" viewBox="0 0 272 165" fill="none" xmlns="http://www.w3.org/2000/svg">
<path d="M170.406 131.024C168.361 131.032 166.984 130.515 165.918 129.346C165.465 128.853 165.146 128.233 164.828 127.636C164.605 127.223 164.47 127.143 164.112 127.446C163.818 127.7 163.539 127.97 163.269 128.249C162.266 129.282 161.136 130.141 159.823 130.738C159.521 130.873 159.187 130.984 158.86 131.024C158.033 131.127 157.189 131.167 156.41 130.841C155.526 130.475 154.945 129.767 154.699 128.861C154.436 127.891 154.548 126.929 154.85 125.959C155.288 124.543 156.028 123.271 156.616 121.935C156.656 121.848 156.704 121.768 156.744 121.681C157.309 120.48 157.189 120.559 156.306 119.724C156.234 119.661 156.155 119.605 156.091 119.542C155.733 119.223 155.455 119.255 155.2 119.685C154.603 120.695 154.022 121.712 153.418 122.714C152.519 124.193 151.58 125.648 150.41 126.929C149.543 127.883 148.643 128.805 147.681 129.648C146.758 130.459 145.668 131.024 144.434 131.215C143.058 131.421 141.777 131.159 140.806 130.086C140.487 129.736 140.336 129.235 140.106 128.805C140.01 128.63 139.938 128.352 139.803 128.312C139.668 128.273 139.429 128.44 139.286 128.575C138.45 129.41 137.551 130.173 136.469 130.658C134.902 131.358 133.27 131.652 131.631 130.889C130.852 130.523 130.263 129.927 129.984 129.076C129.928 128.893 129.889 128.71 129.825 128.535C129.714 128.249 129.531 128.185 129.292 128.376C128.91 128.686 128.56 129.036 128.178 129.346C126.968 130.316 125.648 131.064 124.088 131.294C122.616 131.509 121.295 131.151 120.173 130.173C119.72 129.783 119.457 129.251 119.29 128.678C119.139 128.185 118.892 128.129 118.494 128.463C117.205 129.545 115.884 130.587 114.293 131.183C113.147 131.612 111.961 131.986 110.704 131.7C109.726 131.485 108.866 131.056 108.222 130.26C107.617 129.497 107.466 128.614 107.585 127.684C107.744 126.404 108.182 125.203 108.763 124.058C109.288 123.024 109.805 121.983 110.267 120.917C110.649 120.035 111.078 119.16 111.023 118.158C110.999 117.625 110.752 117.355 110.219 117.371C109.479 117.395 108.795 117.649 108.182 118.055C107.466 118.524 106.797 119.064 106.121 119.597C104.378 120.965 102.787 122.5 101.243 124.082C100.328 125.02 99.628 126.102 99.079 127.294C98.6175 128.296 98.164 129.29 97.6547 130.268C97.3364 130.881 96.851 131.35 96.0792 131.342C95.2278 131.334 94.5435 130.547 94.6628 129.696C94.6947 129.497 94.7504 129.306 94.7663 129.107C94.7742 129.004 94.7504 128.845 94.6867 128.805C94.6151 128.766 94.4639 128.797 94.3684 128.845C94.1059 128.988 93.8433 129.155 93.5966 129.322C92.5144 130.054 91.3766 130.698 90.0716 130.913C87.8914 131.278 85.8624 130.905 84.1038 129.521C82.6238 128.352 82.0589 126.817 82.4408 124.949C82.7273 123.557 83.1331 122.205 83.8015 120.949C84.1516 120.297 84.5494 119.661 84.9632 119.049C85.6396 118.031 86.3955 117.084 87.2707 116.234C88.1779 115.359 89.1645 114.572 90.3501 114.095C91.2572 113.729 92.1802 113.554 93.1351 113.904C93.9388 114.198 94.639 114.643 95.005 115.438C95.3551 116.194 95.4745 116.989 95.3233 117.832C95.1005 119.088 94.4958 120.122 93.6443 121.044C92.8486 121.911 91.9415 122.667 90.9389 123.279C89.817 123.963 88.5916 124.4 87.2548 124.416C86.9206 124.424 86.5785 124.384 86.2522 124.432C86.0454 124.464 85.7828 124.567 85.6714 124.726C85.194 125.37 85.2894 126.547 85.9101 127.024C86.9525 127.835 88.1381 128.225 89.4749 127.891C90.9151 127.533 92.1166 126.706 93.2226 125.776C94.3923 124.798 95.4983 123.732 96.5964 122.667C97.1216 122.158 97.599 121.601 98.2356 121.211C98.4027 121.108 98.5538 120.925 98.6414 120.742C99.087 119.852 99.5087 118.953 99.9304 118.055C100.281 117.307 100.639 116.56 100.981 115.812C101.243 115.248 101.482 114.683 101.753 114.126C101.928 113.776 102.127 113.419 102.373 113.116C102.914 112.449 103.965 112.409 104.546 113.037C105.007 113.522 104.983 114.15 104.824 114.723C104.673 115.271 104.386 115.78 104.164 116.313C104.06 116.552 103.957 116.798 103.885 117.045C103.853 117.148 103.901 117.275 103.909 117.395C104.028 117.371 104.164 117.379 104.251 117.315C104.633 117.029 105.007 116.711 105.381 116.409C106.575 115.446 107.887 114.715 109.423 114.516C110.012 114.444 110.625 114.421 111.206 114.508C112.709 114.739 113.871 115.876 114.038 117.514C114.174 118.786 113.879 119.987 113.41 121.132C112.717 122.818 111.906 124.448 111.166 126.11C110.975 126.539 110.84 126.992 110.736 127.454C110.537 128.336 111.031 128.726 111.882 128.654C112.741 128.583 113.489 128.185 114.205 127.756C116.258 126.523 117.929 124.877 119.338 122.953C119.393 122.873 119.441 122.778 119.521 122.738C120.666 122.054 121.009 120.83 121.542 119.74C122.059 118.699 122.52 117.633 123.014 116.583C123.428 115.693 123.833 114.794 124.271 113.912C124.589 113.26 124.939 112.631 125.274 111.987C125.441 111.669 125.6 111.351 125.743 111.025C125.902 110.675 125.775 110.421 125.393 110.349C125.067 110.294 124.725 110.246 124.39 110.254C123.03 110.27 121.693 110.063 120.372 109.793C119.68 109.65 119.179 109.045 119.21 108.353C119.242 107.614 119.736 107.017 120.476 106.986C121.327 106.954 122.186 107.01 123.038 107.073C124.382 107.177 125.727 107.312 127.072 107.439C127.366 107.463 127.613 107.351 127.772 107.097C128.019 106.707 128.258 106.31 128.472 105.904C128.838 105.236 129.165 104.544 129.539 103.877C129.849 103.32 130.302 102.938 130.995 102.938C131.663 102.938 132.18 103.447 132.228 104.115C132.268 104.831 131.91 105.403 131.615 106C131.44 106.357 131.225 106.699 131.05 107.049C130.836 107.463 130.979 107.749 131.432 107.789C132.944 107.924 134.432 108.266 135.968 108.242C136.541 108.234 137.114 108.345 137.679 108.449C138.713 108.632 139.294 109.506 139.015 110.413C138.793 111.144 138.053 111.566 137.193 111.486C135.379 111.311 133.565 111.16 131.751 110.985C131.257 110.938 130.772 110.85 130.287 110.771C129.459 110.636 129.165 110.747 128.767 111.494C128.25 112.464 127.772 113.45 127.287 114.436C126.801 115.423 126.332 116.416 125.87 117.41C125.433 118.349 125.027 119.303 124.589 120.249C124.271 120.941 123.929 121.625 123.603 122.317C123.085 123.414 122.528 124.503 122.298 125.704C122.194 126.245 122.162 126.809 122.186 127.358C122.21 127.907 122.56 128.169 123.117 128.225C123.961 128.312 124.677 127.97 125.361 127.557C126.3 126.992 127.088 126.229 127.748 125.394C129.181 123.581 130.541 121.704 131.918 119.844C132.371 119.231 132.801 118.595 133.199 117.943C133.453 117.53 133.644 117.069 133.859 116.623C134.106 116.106 134.329 115.574 134.607 115.065C134.878 114.572 135.268 114.23 135.872 114.206C136.756 114.174 137.384 114.922 137.161 115.868C137.01 116.496 136.724 117.084 136.493 117.689C136.223 118.404 135.952 119.12 135.666 119.828C135.514 120.194 135.323 120.543 135.14 120.893C134.321 122.428 133.668 124.042 133.111 125.688C132.952 126.173 132.849 126.682 132.761 127.183C132.626 127.97 133.119 128.416 133.931 128.336C134.973 128.233 135.777 127.684 136.533 127.04C137.822 125.935 138.801 124.583 139.692 123.152C140.997 121.044 142.286 118.921 143.575 116.798C143.989 116.106 144.347 115.383 144.975 114.842C145.819 114.118 147.004 114.54 147.283 115.391C147.482 116.027 147.394 116.591 147.084 117.14C146.169 118.77 145.302 120.416 144.593 122.142C143.949 123.716 143.44 125.33 143.01 126.976C142.755 127.97 143.121 128.408 144.124 128.217C144.474 128.153 144.816 127.978 145.126 127.803C146.256 127.143 147.148 126.213 147.975 125.219C149.097 123.859 150.1 122.412 150.991 120.893C151.508 120.019 151.985 119.12 152.487 118.237C152.98 117.387 153.473 116.536 153.991 115.693C154.333 115.128 154.54 114.548 154.611 113.872C154.691 113.156 154.914 112.433 155.168 111.757C155.423 111.081 156.211 110.81 156.951 111.041C157.516 111.216 157.89 111.892 157.762 112.568C157.667 113.093 157.444 113.602 157.412 114.126C157.364 114.842 157.364 115.574 157.468 116.281C157.563 116.973 158.073 117.458 158.598 117.895C158.765 118.039 158.956 118.158 159.107 118.317C159.489 118.699 159.919 119.025 160.03 119.621C160.181 120.456 160.133 121.259 159.783 122.022C159.338 123.016 158.828 123.979 158.391 124.981C158.081 125.688 157.858 126.436 157.595 127.159C157.579 127.199 157.571 127.239 157.563 127.279C157.508 127.549 157.476 127.867 157.738 127.986C157.969 128.09 158.311 128.106 158.542 128.01C159.457 127.628 160.205 127.008 160.913 126.332C162.043 125.259 162.99 124.034 163.929 122.794C164.247 122.372 164.637 122.046 165.178 121.967C165.632 121.895 165.918 121.609 166.141 121.227C166.929 119.875 167.939 118.707 169.117 117.673C170.112 116.798 171.13 115.971 172.284 115.303C173.294 114.715 174.353 114.285 175.53 114.214C177.321 114.11 178.976 115.51 179.103 117.108C179.222 118.683 178.689 119.971 177.782 121.18C177.026 122.189 176.063 122.953 174.989 123.581C174.122 124.09 173.151 124.297 172.157 124.464C171.019 124.655 169.913 124.678 168.791 124.424C168.186 124.289 168.011 124.416 167.804 124.996C167.366 126.253 167.971 127.374 169.22 127.811C170.112 128.121 170.923 127.883 171.735 127.613C173.239 127.104 174.575 126.277 175.841 125.338C176.278 125.012 176.764 124.901 177.297 124.973C177.838 125.044 178.196 125.37 178.403 125.847C178.65 126.428 178.466 126.968 178.061 127.382C177.623 127.827 177.138 128.241 176.605 128.567C175.65 129.155 174.671 129.696 173.668 130.189C172.467 130.769 171.234 131.056 170.406 131.024ZM170.454 121.895C170.454 121.903 170.462 121.911 170.462 121.927C171.241 121.768 172.053 121.696 172.785 121.434C173.82 121.06 174.695 120.4 175.387 119.526C175.729 119.096 176 118.627 176.119 118.086C176.239 117.538 175.976 117.228 175.427 117.243C175.316 117.243 175.188 117.251 175.085 117.291C174.655 117.474 174.186 117.609 173.804 117.864C172.968 118.436 172.149 119.033 171.369 119.685C170.836 120.13 170.366 120.663 169.905 121.188C169.674 121.45 169.801 121.768 170.143 121.863C170.239 121.887 170.35 121.887 170.454 121.895ZM92.4269 117.426C92.419 116.886 92.2121 116.695 91.7904 116.727C91.2652 116.766 90.8435 117.061 90.4456 117.363C89.1725 118.333 88.1619 119.542 87.2946 120.877C87.2071 121.013 87.1514 121.291 87.223 121.378C87.3264 121.498 87.589 121.569 87.7482 121.522C88.2176 121.386 88.711 121.251 89.1168 120.997C90.1273 120.376 91.0901 119.685 91.8142 118.722C92.1325 118.317 92.4349 117.88 92.4269 117.426Z" fill="#4D6059"/>
<path d="M234.436 126.841C234.389 125.625 234.675 124.479 235.272 123.438C235.948 122.245 236.68 121.084 237.404 119.923C237.77 119.343 237.77 119.033 237.333 118.659C237.118 118.476 236.903 118.436 236.688 118.643C236.473 118.858 236.259 119.072 236.06 119.303C235.503 119.923 234.874 120.456 234.134 120.846C233.036 121.426 231.874 121.498 230.681 121.267C230.394 121.211 230.116 121.108 229.845 121.005C229.431 120.853 229.225 120.909 229.065 121.315C228.548 122.579 227.896 123.78 227.18 124.933C226.137 126.611 224.832 128.05 223.249 129.258C222.477 129.847 221.665 130.316 220.703 130.483C219.421 130.714 218.268 130.427 217.257 129.6C216.613 129.076 216.191 128.408 215.873 127.652C215.451 126.658 215.459 125.625 215.467 124.575C215.475 123.422 215.793 122.332 216.151 121.267C216.716 119.597 217.583 118.086 218.689 116.703C219.445 115.756 220.313 114.953 221.315 114.293C222.254 113.673 223.297 113.275 224.419 113.172C225.286 113.093 226.097 113.299 226.814 113.848C227.06 114.039 227.387 114.134 227.665 114.277C227.983 114.444 228.325 114.587 228.612 114.802C228.946 115.049 229.225 115.375 229.535 115.653C229.957 116.027 230.203 116.472 230.227 117.045C230.235 117.251 230.275 117.466 230.354 117.657C230.776 118.563 232.025 118.873 232.869 118.301C234.07 117.474 234.906 116.321 235.598 115.065C235.718 114.858 235.733 114.587 235.757 114.341C235.797 113.776 235.765 113.204 235.837 112.647C235.94 111.828 236.235 111.065 236.744 110.405C237.253 109.745 237.89 109.578 238.503 109.912C238.98 110.174 239.258 110.818 239.123 111.439C239.052 111.788 238.924 112.122 238.821 112.464C238.288 114.15 238.399 115.709 239.752 117.013C239.998 117.251 240.229 117.514 240.436 117.784C241.049 118.595 241.025 119.494 240.571 120.329C240.078 121.243 239.465 122.102 238.9 122.985C238.367 123.804 237.89 124.654 237.587 125.585C237.46 125.966 237.428 126.38 237.404 126.778C237.389 127.135 237.603 127.318 237.961 127.31C238.566 127.302 239.036 126.968 239.465 126.595C241.415 124.901 242.974 122.889 244.415 120.766C245.322 119.43 246.34 118.174 247.303 116.886C247.47 116.663 247.645 116.432 247.812 116.21C248.154 115.748 248.576 115.414 249.149 115.271C249.523 115.176 249.714 114.874 249.849 114.556C250.788 112.313 251.719 110.071 252.658 107.836C253.191 106.564 253.74 105.292 254.281 104.02C254.631 103.201 254.958 102.374 255.308 101.555C255.562 100.958 255.928 100.465 256.629 100.33C257.663 100.131 258.514 100.847 258.363 101.889C258.276 102.469 258.045 103.034 257.822 103.582C257.448 104.528 257.027 105.451 256.629 106.381C256.271 107.216 255.913 108.051 255.562 108.894C255.196 109.785 254.846 110.683 254.472 111.574C253.915 112.886 253.342 114.19 252.785 115.502C252.467 116.257 252.173 117.013 251.87 117.776C251.862 117.808 251.839 117.84 251.839 117.864C251.846 118.015 251.87 118.166 251.886 118.317C252.037 118.293 252.213 118.317 252.324 118.245C252.976 117.824 253.645 117.426 254.234 116.925C255.252 116.059 256.223 115.128 257.21 114.222C257.56 113.904 257.934 113.657 258.435 113.665C259.382 113.681 259.979 114.611 259.597 115.486C259.326 116.106 258.873 116.599 258.395 117.045C257.528 117.864 256.621 118.635 255.698 119.398C255.188 119.82 254.631 120.17 254.098 120.559C253.716 120.838 253.517 121.14 253.955 121.585C254.942 122.611 255.117 123.891 254.982 125.243C254.942 125.688 254.878 126.141 254.846 126.587C254.83 126.817 254.799 127.111 255.053 127.191C255.252 127.255 255.547 127.223 255.73 127.119C256.175 126.865 256.613 126.579 256.995 126.253C258.602 124.869 260.01 123.287 261.459 121.752C262.039 121.132 262.604 120.504 263.193 119.891C264.753 118.277 266.32 116.671 267.888 115.073C268.294 114.659 268.692 114.246 269.145 113.888C269.615 113.522 270.132 113.188 270.784 113.323C271.699 113.514 272.121 114.381 271.97 115.224C271.851 115.876 271.58 116.504 271.429 117.156C271.182 118.277 270.999 119.414 270.744 120.543C270.243 122.754 269.615 124.925 268.7 127C268.214 128.098 267.586 129.099 266.591 129.807C265.907 130.3 265.135 130.578 264.275 130.594C263.329 130.61 262.413 130.539 261.578 130.022C260.949 129.632 260.464 129.107 260.01 128.543C259.628 128.066 259.43 128.026 258.976 128.424C258.292 129.02 257.528 129.497 256.7 129.863C255.69 130.316 254.631 130.356 253.605 129.982C252.618 129.624 252.157 128.813 251.99 127.795C251.846 126.937 252.101 126.11 252.141 125.267C252.157 124.933 252.189 124.599 252.165 124.265C252.133 123.724 251.767 123.358 251.226 123.358C250.748 123.358 250.263 123.414 249.786 123.454C249.531 123.478 249.364 123.621 249.268 123.851C248.775 125.044 248.29 126.237 247.78 127.422C247.391 128.312 247.025 129.219 246.547 130.062C246.046 130.944 244.828 131.024 244.184 130.276C243.714 129.728 243.738 129.115 243.993 128.471C244.335 127.628 244.661 126.778 244.995 125.927C245.011 125.879 245.043 125.823 245.035 125.776C245.027 125.68 245.003 125.585 244.98 125.489C244.884 125.513 244.765 125.513 244.701 125.569C244.375 125.903 244.049 126.253 243.746 126.611C242.64 127.915 241.391 129.06 239.879 129.871C239.075 130.3 238.2 130.507 237.293 130.364C235.757 130.133 234.429 128.853 234.436 127.215C234.436 127.096 234.436 126.968 234.436 126.841ZM218.379 124.972C218.331 125.545 218.403 126.133 218.697 126.69C219.024 127.294 219.652 127.668 220.185 127.509C220.52 127.406 220.862 127.263 221.148 127.064C222.191 126.356 223.034 125.434 223.798 124.448C224.689 123.279 225.389 121.991 225.946 120.623C226.312 119.732 226.639 118.842 226.559 117.856C226.511 117.275 226.368 116.703 225.875 116.361C225.405 116.035 224.816 115.939 224.243 116.074C223.265 116.305 222.453 116.87 221.769 117.561C220.424 118.905 219.445 120.496 218.865 122.309C218.594 123.159 218.323 124.01 218.379 124.972ZM262.246 125.601C262.246 126.181 262.469 126.611 262.811 127.008C263.44 127.732 264.427 127.636 264.976 127.04C265.31 126.674 265.612 126.253 265.811 125.799C266.456 124.328 266.997 122.826 267.379 121.267C267.45 120.973 267.506 120.671 267.538 120.376C267.546 120.289 267.498 120.138 267.434 120.114C267.347 120.082 267.22 120.122 267.124 120.17C267.044 120.209 266.981 120.289 266.909 120.353C266.464 120.814 266.026 121.275 265.58 121.736C264.602 122.754 263.623 123.772 262.652 124.798C262.421 125.036 262.199 125.283 262.246 125.601Z" fill="#4D6059"/>
<path d="M0.013658 120.981C-0.0659125 119.565 0.204627 118.007 0.761621 116.496C1.36636 114.85 2.24163 113.347 3.46702 112.083C4.34229 111.184 5.34488 110.445 6.45887 109.864C8.14576 108.982 9.91223 108.282 11.798 107.964C13.3656 107.693 14.949 107.677 16.5245 107.884C16.8826 107.932 17.2645 108.075 17.5669 108.274C18.1716 108.656 18.3785 109.292 18.1955 109.904C18.0284 110.484 17.4396 110.922 16.7632 110.938C16.4688 110.946 16.1744 110.914 15.888 110.866C14.8138 110.659 13.7555 110.691 12.6813 110.93C11.44 111.208 10.2226 111.55 9.05287 112.051C7.08748 112.902 5.40058 114.103 4.37412 116.019C3.42723 117.792 2.8225 119.693 2.98959 121.744C3.10895 123.223 3.55455 124.599 4.46961 125.792C4.84359 126.277 5.2494 126.754 5.70295 127.167C6.46683 127.851 7.41371 128.145 8.40039 128.368C9.4348 128.599 10.4454 128.575 11.4877 128.384C12.92 128.121 14.2727 127.684 15.4822 126.857C16.1346 126.42 16.7632 125.943 17.3441 125.418C18.4899 124.384 19.6198 123.342 20.702 122.245C21.5852 121.355 22.4048 120.392 23.2244 119.446C24.6726 117.76 26.0969 116.067 27.5371 114.365C27.8395 114.007 28.1498 113.641 28.4283 113.268C28.5158 113.148 28.5238 112.965 28.5636 112.814C28.4203 112.775 28.2691 112.695 28.1259 112.719C27.744 112.767 27.3541 112.83 26.9881 112.934C25.5717 113.323 24.2508 113.936 22.9936 114.667C22.2059 115.128 21.4897 115.693 20.7338 116.21C20.32 116.496 19.8983 116.758 19.3732 116.822C18.7127 116.909 18.1478 116.687 17.8772 116.194C17.5828 115.669 17.6704 114.826 18.1398 114.413C18.7286 113.896 19.3652 113.435 20.0018 112.973C21.6887 111.741 23.5665 110.882 25.5399 110.254C26.9164 109.817 28.3408 109.53 29.8049 109.562C30.2664 109.57 30.7279 109.602 31.1894 109.554C31.4281 109.53 31.7145 109.419 31.8737 109.252C33.1468 107.956 34.3404 106.588 35.6533 105.348C37.1015 103.98 38.6133 102.684 40.1649 101.443C41.1596 100.648 42.2417 99.9404 43.3398 99.3043C44.9471 98.3739 46.6499 97.6344 48.5278 97.5311C49.2041 97.4913 49.9282 97.6662 50.5807 97.8889C51.2491 98.1195 51.5276 98.8669 51.3366 99.6303C51.2332 100.044 51.074 100.449 50.9149 100.847C50.3977 102.079 49.8487 103.304 49.3315 104.545C48.5914 106.326 47.8753 108.115 47.1353 109.888C46.6897 110.954 46.1964 111.995 45.7508 113.053C44.9949 114.858 44.2549 116.671 43.4989 118.484C42.9419 119.804 42.369 121.116 41.812 122.444C41.4619 123.287 41.1436 124.138 40.7856 124.973C40.4196 125.831 40.0137 126.666 39.6398 127.517C39.417 128.034 39.226 128.567 39.0112 129.092C38.7963 129.624 38.6133 130.181 38.1677 130.579C37.4834 131.199 36.4967 131.119 35.9557 130.404C35.701 130.07 35.6374 129.656 35.7408 129.267C35.9397 128.551 36.1705 127.843 36.449 127.159C37.0458 125.696 37.6823 124.249 38.2871 122.786C38.6929 121.8 39.0509 120.79 39.4806 119.812C39.775 119.128 39.6875 118.492 39.3772 117.872C38.9316 116.989 38.486 116.098 37.746 115.391C36.9742 114.651 36.0671 114.15 35.1042 113.721C34.5154 113.458 33.8948 113.252 33.2821 113.037C32.8604 112.886 32.5898 112.965 32.3034 113.307C31.2132 114.627 30.139 115.947 29.0489 117.259C27.5928 119.017 26.1367 120.782 24.6487 122.508C23.7973 123.501 22.8902 124.448 21.9592 125.37C20.5031 126.809 18.9992 128.193 17.3043 129.346C16.246 130.07 15.1002 130.618 13.851 130.976C11.6309 131.62 9.38706 131.588 7.15113 131.231C5.63133 130.984 4.30251 130.253 3.23626 129.107C2.72701 128.559 2.19389 128.01 1.76421 127.398C1.21517 126.619 0.825277 125.76 0.491081 124.853C0.0852715 123.661 -0.00225606 122.436 0.013658 120.981ZM47.3979 101.133C47.4058 100.799 47.199 100.672 46.8648 100.799C46.2839 101.022 45.6792 101.237 45.146 101.563C44.0321 102.254 42.926 102.962 41.8916 103.749C40.7776 104.6 39.7114 105.523 38.7008 106.485C37.5311 107.59 36.4251 108.775 35.3111 109.928C35.0485 110.198 35.0883 110.453 35.4225 110.651C35.6931 110.81 35.9954 110.906 36.2739 111.057C36.9662 111.423 37.6823 111.749 38.3428 112.178C39.4011 112.862 40.2763 113.737 40.9925 114.778C41.2471 115.152 41.5097 115.12 41.6927 114.715C41.9553 114.15 42.2019 113.57 42.4486 112.989C42.9499 111.781 43.4432 110.572 43.9525 109.363C44.3265 108.473 44.7164 107.598 45.0903 106.707C45.7985 105.038 46.4987 103.368 47.199 101.698C47.2785 101.499 47.3422 101.276 47.3979 101.133Z" fill="#4D6059"/>
<path d="M195.144 97.1731C196.218 97.2288 197.285 97.1731 198.335 97.4753C199.712 97.8729 201.056 98.342 202.17 99.2883C202.926 99.9324 203.467 100.728 203.833 101.65C204.271 102.763 204.422 103.924 204.382 105.101C204.343 106.349 204.136 107.582 203.714 108.767C203.165 110.286 202.592 111.788 202.035 113.299C201.629 114.405 201.223 115.518 200.826 116.631C200.786 116.75 200.833 116.901 200.833 117.037C200.953 116.973 201.112 116.941 201.2 116.846C201.685 116.297 202.154 115.733 202.632 115.176C203.587 114.063 204.541 112.949 205.496 111.836C206.706 110.429 207.907 109.021 209.125 107.622C209.379 107.335 209.658 107.057 209.976 106.842C210.668 106.373 211.536 106.572 212.037 107.232C212.634 108.011 212.689 108.854 212.411 109.761C211.886 111.47 211.361 113.188 210.867 114.906C210.454 116.369 210.08 117.84 209.698 119.311C209.65 119.486 209.698 119.685 209.706 119.875C209.857 119.764 210.056 119.685 210.159 119.541C210.652 118.85 211.13 118.15 211.599 117.442C212.522 116.043 213.437 114.635 214.345 113.236C214.83 112.488 215.299 111.733 215.793 110.993C216.477 109.952 217.169 108.918 217.854 107.876C218.482 106.914 219.087 105.928 219.716 104.966C220.416 103.884 221.14 102.819 221.84 101.737C222.453 100.791 223.058 99.829 223.67 98.8827C223.981 98.3977 224.315 97.9285 224.816 97.6025C225.293 97.2844 225.954 97.2526 226.415 97.5786C226.909 97.9285 227.155 98.4215 227.036 99.0179C226.964 99.3678 226.813 99.7177 226.622 100.028C225.89 101.197 225.126 102.358 224.37 103.511C223.264 105.204 222.158 106.89 221.052 108.584C220.241 109.832 219.437 111.081 218.625 112.329C217.352 114.277 216.063 116.21 214.798 118.158C213.764 119.748 212.753 121.346 211.719 122.937C210.469 124.869 209.22 126.809 207.947 128.734C207.525 129.37 207.08 129.998 206.563 130.555C206.069 131.103 205.385 131.183 204.701 130.936C204.191 130.753 203.881 130.34 203.913 129.799C203.945 129.187 204.04 128.575 204.183 127.978C204.454 126.881 204.772 125.791 205.083 124.71C205.441 123.462 205.823 122.221 206.181 120.973C206.547 119.685 206.897 118.388 207.255 117.1C207.446 116.416 207.653 115.733 207.844 115.049C207.907 114.81 207.963 114.556 207.979 114.309C207.987 114.047 207.812 113.959 207.613 114.142C207.35 114.381 207.112 114.643 206.881 114.921C205.831 116.186 204.764 117.442 203.746 118.73C202.584 120.185 201.43 121.649 200.34 123.159C199.481 124.344 198.725 125.609 197.929 126.833C197.706 127.175 197.476 127.509 197.261 127.859C196.744 128.67 196.234 129.489 195.725 130.308C195.415 130.809 195.001 131.191 194.396 131.262C193.163 131.397 192.558 130.237 192.829 129.266C193.067 128.4 193.378 127.549 193.68 126.706C194.205 125.251 194.738 123.796 195.279 122.34C195.836 120.861 196.401 119.382 196.966 117.911C197.301 117.029 197.635 116.154 197.977 115.271C198.621 113.601 199.266 111.932 199.91 110.262C200.483 108.767 201.064 107.264 201.287 105.666C201.47 104.314 201.327 102.986 200.372 101.904C200.078 101.57 199.688 101.268 199.274 101.085C198.041 100.513 196.736 100.179 195.359 100.131C193.863 100.075 192.431 100.354 191.054 100.895C189.717 101.419 188.596 102.262 187.617 103.32C187.06 103.932 186.606 104.6 186.216 105.324C186.017 105.689 185.842 106.079 185.723 106.477C185.357 107.685 185.063 108.894 185.524 110.166C185.787 110.89 186.057 111.59 186.638 112.099C187.235 112.631 187.943 112.926 188.755 112.695C189.097 112.6 189.407 112.361 189.717 112.178C190.41 111.773 191.102 111.868 191.556 112.433C191.953 112.933 191.866 113.8 191.381 114.309C190.577 115.144 189.622 115.566 188.436 115.558C187.545 115.55 186.702 115.414 185.906 115.033C185.047 114.619 184.362 113.991 183.821 113.212C182.731 111.645 182.333 109.888 182.477 107.995C182.572 106.763 182.866 105.57 183.384 104.457C184.092 102.922 185.015 101.539 186.312 100.417C187.203 99.6461 188.126 98.9225 189.192 98.4215C189.733 98.1671 190.298 97.9762 190.863 97.7933C191.404 97.6184 191.945 97.4435 192.502 97.3798C193.386 97.2606 194.269 97.2367 195.144 97.1731Z" fill="#4D6059"/>
<path d="M70.2826 129.219C70.3781 128.535 70.4656 127.851 70.5531 127.167C70.6486 126.42 70.752 125.672 70.8236 124.925C70.8396 124.79 70.7441 124.646 70.7043 124.503C70.569 124.575 70.4019 124.615 70.3144 124.718C69.829 125.275 69.3755 125.871 68.8742 126.42C67.4817 127.931 66.1131 129.465 64.3466 130.571C63.0178 131.405 61.5696 131.652 60.0578 131.334C58.7369 131.056 57.8934 130.157 57.4399 128.901C57.2967 128.511 57.2012 128.098 57.0818 127.7C56.9784 127.342 56.8272 127.294 56.5646 127.557C55.8405 128.265 55.1403 129.012 54.3764 129.672C52.7771 131.048 50.8992 131.398 48.894 130.905C47.5413 130.571 46.6422 129.68 46.2762 128.288C46.0374 127.382 46.0295 126.483 46.2523 125.585C46.4989 124.583 46.7058 123.557 47.0639 122.587C47.5254 121.331 48.0983 120.114 48.894 119.025C49.4828 118.214 50.0717 117.387 50.748 116.655C51.87 115.446 53.0874 114.325 54.7106 113.8C56.4293 113.244 58.3629 113.689 59.5246 115.367C59.636 115.526 59.819 115.637 59.9623 115.772C60.1055 115.605 60.2965 115.454 60.376 115.255C60.7739 114.285 61.124 113.299 61.5139 112.329C62.1425 110.779 62.7791 109.228 63.4236 107.685C63.9726 106.373 64.5296 105.061 65.0866 103.757C65.5322 102.7 65.9698 101.634 66.4234 100.577C66.686 99.9642 67.2907 99.5905 67.8636 99.6621C68.6752 99.7575 69.2402 100.513 69.0333 101.316C68.8742 101.944 68.6195 102.541 68.3967 103.153C68.1819 103.717 67.9591 104.282 67.7204 104.847C67.4976 105.379 67.2668 105.904 67.044 106.437C66.861 106.882 66.678 107.328 66.503 107.773C65.7789 109.586 65.0468 111.383 64.3466 113.204C63.6862 114.914 63.0496 116.631 62.413 118.349C62.0072 119.446 61.5855 120.543 61.2434 121.665C60.8296 123.024 60.3203 124.36 60.1612 125.792C60.0975 126.396 60.0896 127 60.2328 127.605C60.3681 128.185 60.8614 128.511 61.4582 128.416C62.3573 128.28 63.0735 127.779 63.726 127.207C65.2378 125.879 66.6223 124.416 67.8477 122.81C68.5957 121.824 69.3914 120.869 70.0757 119.852C70.7679 118.818 71.3647 117.721 71.9933 116.647C72.3594 116.027 72.6776 115.375 73.0675 114.77C73.3619 114.325 73.7996 114.079 74.3725 114.087C75.1921 114.11 75.8605 114.707 75.9321 115.542C76.0116 116.432 75.7093 117.251 75.5024 118.102C75.0886 119.867 74.6987 121.633 74.3009 123.398C74.3009 123.406 74.2929 123.422 74.3009 123.43C74.3486 123.589 74.3884 123.748 74.4361 123.907C74.5714 123.82 74.7385 123.756 74.826 123.629C75.6615 122.452 76.4891 121.267 77.3086 120.074C77.8179 119.335 78.3351 118.595 78.8205 117.84C79.4252 116.901 80.0061 115.939 80.6108 114.993C80.8734 114.58 81.136 114.158 81.6214 113.951C82.1067 113.737 82.5921 113.721 83.0298 114.015C83.5231 114.349 83.7141 114.826 83.6504 115.43C83.5868 115.995 83.3242 116.472 83.0298 116.925C81.6611 119.033 80.3244 121.164 78.9001 123.231C77.3803 125.442 75.7888 127.597 74.2134 129.767C73.8473 130.268 73.4495 130.761 72.8447 131.032C71.8342 131.485 70.6406 130.984 70.386 129.974C70.3224 129.736 70.3383 129.473 70.3144 129.227C70.3064 129.219 70.2905 129.219 70.2826 129.219ZM57.424 118.699C57.424 118.373 57.4399 118.15 57.424 117.935C57.3524 116.894 56.5805 116.289 55.6336 116.552C55.3472 116.631 55.0607 116.774 54.8141 116.941C53.6762 117.697 52.6895 118.627 51.9336 119.756C51.297 120.702 50.6923 121.68 50.199 122.698C49.817 123.478 49.5783 124.344 49.3714 125.195C49.2203 125.823 49.1725 126.499 49.1805 127.151C49.1884 127.716 49.5465 127.986 50.1114 128.066C50.8117 128.161 51.4482 127.978 52.0211 127.612C52.976 127.008 53.7399 126.205 54.3685 125.275C55.3313 123.851 56.2065 122.372 56.8511 120.774C57.1375 120.066 57.5752 119.406 57.424 118.699Z" fill="#4D6059"/>
<path d="M209.721 54.4405C209.643 52.5952 209.35 50.7727 208.914 48.9813C208.002 45.2471 206.389 41.7797 204.202 38.6194C202.993 36.8716 201.545 35.3294 200.001 33.8741C198.647 32.5789 197.125 31.4577 195.539 30.4714C193.048 28.9237 190.341 27.7408 187.512 26.9706C187.473 26.9625 187.425 26.9463 187.385 26.9382C187.298 26.9139 187.218 26.8975 187.131 26.8732C187.083 26.8571 187.043 26.8489 186.996 26.8407C186.908 26.8164 186.821 26.8 186.733 26.7757C186.67 26.7595 186.606 26.7433 186.543 26.727L186.424 26.6946C186.424 26.6946 186.424 26.6946 186.416 26.6946C186.185 26.6377 185.947 26.5888 185.716 26.5319C185.637 26.5076 185.557 26.4913 185.478 26.475C185.382 26.4586 185.295 26.4422 185.2 26.4179C184.977 26.369 184.746 26.3281 184.524 26.2871C184.5 26.287 184.484 26.279 184.46 26.2789C184.365 26.2625 184.269 26.2461 184.174 26.2297L184.166 26.2296C184.166 26.2296 184.166 26.2296 184.158 26.2296C184.134 26.2215 184.103 26.2213 184.079 26.2212C184.047 26.2131 184.015 26.2129 183.983 26.2048C183.967 26.2047 183.944 26.1967 183.928 26.1966C183.458 26.1305 182.989 26.0724 182.512 26.0222C182.48 26.0141 182.449 26.014 182.417 26.0138C182.345 26.0055 182.274 25.9971 182.202 25.9968C182.122 25.9884 182.043 25.988 181.971 25.9876C181.247 25.9282 180.531 25.9006 179.807 25.8969C175.71 25.8756 171.631 26.7052 167.827 28.2838C165.493 21.107 163.151 13.9382 160.818 6.76141L167.318 6.79519C167.979 6.79862 168.491 6.14923 168.463 5.52088C168.427 4.83684 167.848 4.38852 167.188 4.38509L159.334 4.34429L159.207 4.34363C158.57 4.34032 158.066 4.94999 158.063 5.55432C158.063 5.57022 158.062 5.59408 158.062 5.60998C158.062 5.64974 158.078 5.68958 158.078 5.72934C158.053 5.95186 158.107 6.16684 158.186 6.40581C158.969 8.81929 159.76 11.2249 160.543 13.6384L117.615 13.4153L116.223 13.4081C115.67 11.0435 115.118 8.67892 114.565 6.3064C114.557 6.27455 114.541 6.24266 114.526 6.21872C114.861 6.00576 115.196 5.78485 115.532 5.57985C115.843 5.39062 116.162 5.20143 116.473 5.00425C116.657 4.88593 116.841 4.78351 117.016 4.65719C117.168 4.55461 117.32 4.45997 117.471 4.36534C117.607 4.28652 117.743 4.21566 117.878 4.1289C117.918 4.10525 117.95 4.08156 117.982 4.06582C117.99 4.06586 117.998 4.0659 118.006 4.06594C118.03 4.06607 118.054 4.05029 118.078 4.04246C118.317 4.03575 118.555 4.02904 118.794 4.01438C119.129 3.98431 119.463 3.96219 119.797 3.94007L119.972 3.93303C120.06 3.92553 120.147 3.92598 120.227 3.91844C120.386 3.90337 120.545 3.88829 120.705 3.88117C120.872 3.86613 121.031 3.8431 121.198 3.81217C121.358 3.78119 121.517 3.74226 121.676 3.69537C122.011 3.60964 122.298 3.51571 122.553 3.40571C122.816 3.2878 123.072 3.16985 123.319 3.028C123.391 2.98861 123.455 2.94123 123.519 2.8859C123.591 2.82266 123.647 2.75138 123.719 2.64839C123.815 2.5137 123.847 2.39459 123.832 2.28319C123.817 2.17178 123.777 2.0682 123.714 1.97245C123.651 1.8767 123.58 1.78886 123.509 1.70102C123.406 1.58121 123.279 1.47718 123.152 1.37314C123.097 1.32514 123.034 1.28506 122.97 1.24497C122.811 1.14872 122.653 1.07633 122.486 1.0357C122.375 1.01127 122.263 0.986834 122.16 0.970393C122.072 0.961987 122.009 0.953704 121.945 0.945421C121.834 0.936891 121.723 0.92836 121.611 0.927781L121.476 0.927079L121.293 0.949983C121.11 0.941081 120.927 0.94013 120.736 0.939137C120.648 0.938683 120.553 0.938187 120.465 0.937732L120.346 0.937112C120.234 0.944485 120.115 0.943865 119.996 0.951196C119.829 0.966231 119.653 0.981225 119.486 1.00421C119.263 1.03486 119.04 1.05756 118.817 1.08821C118.626 1.11107 118.435 1.13393 118.244 1.1568C118.117 1.17204 117.989 1.18728 117.862 1.20252L117.599 1.23296L117.432 1.25595L117.265 1.27894C117.161 1.2943 117.05 1.31758 116.946 1.33294C116.675 1.3872 116.46 1.44175 116.253 1.49633C116.03 1.55084 115.799 1.59735 115.568 1.63591C115.377 1.66672 115.178 1.68159 114.987 1.70445L114.843 1.71166C114.636 1.72649 114.438 1.73341 114.231 1.73233L114.143 1.73188L113.928 1.72281C113.626 1.71329 113.316 1.70372 113.013 1.70215L112.878 1.70145C112.592 1.70791 112.313 1.71442 112.027 1.72883L111.652 1.74279C110.833 1.77829 110.005 1.7899 109.178 1.8015C108.987 1.80051 108.819 1.80759 108.644 1.80668C108.469 1.80577 108.294 1.80486 108.127 1.79604C107.944 1.79509 107.761 1.78619 107.578 1.77729C107.395 1.76838 107.204 1.75149 107.021 1.74259L106.576 1.70846C106.385 1.69157 106.194 1.67467 106.003 1.66573L105.47 1.63115L104.906 1.59641C104.563 1.57873 104.229 1.56109 103.895 1.5514L103.696 1.55037C103.601 1.54987 103.505 1.54938 103.41 1.55683C103.227 1.56383 103.052 1.57883 102.869 1.60173C102.741 1.61697 102.63 1.6323 102.518 1.64762L102.343 1.67057C102.184 1.6936 102.024 1.70867 101.865 1.73965C101.714 1.77067 101.555 1.80961 101.403 1.84858C101.228 1.89538 101.1 1.94243 100.989 2.00546C100.885 2.05263 100.797 2.11579 100.701 2.17891C100.621 2.23416 100.533 2.31322 100.461 2.40827C100.405 2.47954 100.365 2.5509 100.333 2.6382C100.317 2.67788 100.308 2.7176 100.3 2.75731C100.276 2.89237 100.275 2.97984 100.307 3.04361C100.322 3.08345 100.33 3.1153 100.354 3.14723L100.393 3.21105C100.433 3.25897 100.465 3.30684 100.504 3.33886C100.583 3.42674 100.686 3.49089 100.774 3.54701C100.972 3.66732 101.194 3.74799 101.409 3.82862C101.528 3.869 101.623 3.9013 101.726 3.93365L101.893 3.97427L102.06 4.0149C102.203 4.04745 102.386 4.11202 102.569 4.16863C102.696 4.20905 102.831 4.24951 102.958 4.28993C103.125 4.33851 103.284 4.38704 103.451 4.43562C103.633 4.49223 103.808 4.55676 103.983 4.62128C104.157 4.6858 104.324 4.75824 104.491 4.83862C104.642 4.90302 104.785 4.96738 104.927 5.03969C105.039 5.09593 105.142 5.15212 105.245 5.20832L105.388 5.28858L105.554 5.37692C105.642 5.42509 105.721 5.46526 105.808 5.51342C105.919 5.57761 106.014 5.64968 106.117 5.72178C106.228 5.80187 106.332 5.88193 106.442 5.96997C106.561 6.06601 106.696 6.13828 106.823 6.21846C106.887 6.25855 106.958 6.29868 107.021 6.33877C107.219 6.53064 107.449 6.69087 107.687 6.83524C108.005 7.02774 108.338 7.21236 108.679 7.36522C108.989 7.50201 109.33 7.5833 109.664 7.6407C109.815 7.66534 109.967 7.68203 110.126 7.70671C110.316 7.73156 110.507 7.71665 110.698 7.70969C111.025 7.69548 111.343 7.64943 111.662 7.57156C111.909 7.50923 112.148 7.43096 112.387 7.35268C112.776 9.02459 113.166 10.6965 113.563 12.3764C113.491 12.4556 113.427 12.5347 113.378 12.6299C110.703 17.4667 108.021 22.3034 105.346 27.1401C103.719 26.2808 102.028 25.5484 100.28 24.9906C97.4284 24.0773 94.4389 23.6085 91.4472 23.577C88.36 23.553 85.3339 23.9985 82.3692 24.8896C79.4205 25.7729 76.6921 27.1264 74.1291 28.8148C71.5421 30.5269 69.2628 32.7416 67.3325 35.1648C65.8107 37.0813 64.5581 39.2456 63.544 41.4748C62.2962 44.2436 61.5169 47.2215 61.1352 50.2332C60.9194 51.9418 60.9184 53.6594 60.9891 55.3773C61.067 57.2226 61.3599 59.0451 61.7962 60.8365C62.7078 64.5707 64.321 68.0381 66.5087 71.1984C67.7171 72.9462 69.1652 74.4884 70.7093 75.9437C72.0633 77.2309 73.5852 78.3601 75.1715 79.3464C77.662 80.894 80.3693 82.077 83.198 82.8472C83.2378 82.8553 83.2854 82.8715 83.3252 82.8796C83.4126 82.9039 83.4921 82.9202 83.5795 82.9446C83.6272 82.9528 83.6669 82.9689 83.7146 82.9771C83.802 83.0014 83.8894 83.0177 83.9768 83.0421C84.0404 83.0583 84.104 83.0745 84.1675 83.0908C84.2073 83.0989 84.247 83.1071 84.2867 83.1232C84.2867 83.1232 84.2867 83.1232 84.2947 83.1232C84.5251 83.1801 84.7636 83.229 85.002 83.2859C85.0815 83.3022 85.1609 83.3265 85.2404 83.3428C85.3358 83.3592 85.4233 83.3756 85.5186 83.3999C85.7412 83.4488 85.9717 83.4898 86.1943 83.5307C86.2182 83.5308 86.2341 83.5388 86.2579 83.539C86.3533 83.5554 86.4487 83.5718 86.5441 83.5882L86.5521 83.5882C86.5521 83.5882 86.5521 83.5882 86.56 83.5882C86.5839 83.5884 86.6157 83.5965 86.6396 83.5966C86.6714 83.6047 86.7032 83.6049 86.735 83.613C86.7509 83.6131 86.7747 83.6212 86.7906 83.6212C87.2598 83.6873 87.7289 83.7454 88.2061 83.7956C88.2379 83.8037 88.2697 83.8039 88.3015 83.804C88.3731 83.8124 88.4447 83.8207 88.5163 83.8211C88.5958 83.8294 88.6754 83.8298 88.747 83.8302C89.4708 83.8896 90.1868 83.9172 90.9109 83.921C95.2395 83.9435 99.549 83.0275 103.537 81.267C106.336 80.0331 108.947 78.3052 111.241 76.2815C113.552 74.2419 115.522 71.8348 117.087 69.187C117.809 67.9661 118.453 66.6972 119 65.3959C119.644 65.5663 120.288 65.7366 120.923 65.9069C121.4 66.0366 121.877 66.1742 122.354 66.304C122.401 66.344 122.449 66.384 122.504 66.4081C122.663 66.4805 122.854 66.5133 123.021 66.5619C123.203 66.6105 123.386 66.6592 123.569 66.6999C123.577 66.7 123.577 66.7 123.585 66.7L123.577 66.7C123.593 66.708 123.617 66.7081 123.633 66.7162C123.648 66.7162 123.664 66.7243 123.672 66.7243C123.776 66.7487 123.871 66.7651 123.974 66.7895C123.877 67.123 123.78 67.4644 123.683 67.7979C122.897 70.5451 122.118 73.2845 121.332 76.0317C120.847 76.0292 120.362 76.0267 119.876 76.0162C119.868 76.0162 119.868 76.0162 119.86 76.0161L119.773 76.0157C119.582 76.0147 119.431 76.0298 119.271 76.1483C119.127 76.2588 119.031 76.4333 119.006 76.616C118.981 76.7909 119.028 76.974 119.138 77.1177C119.241 77.2534 119.431 77.3816 119.607 77.3825C121.079 77.3981 122.559 77.4058 124.031 77.4214C124.221 77.4224 124.373 77.4073 124.532 77.2889C124.676 77.1783 124.781 77.0039 124.798 76.8211C124.822 76.6463 124.776 76.4631 124.665 76.3194C124.562 76.1837 124.372 76.0475 124.197 76.0466C123.6 76.0435 123.003 76.0325 122.407 76.0294C123.274 72.9963 124.133 69.9711 125 66.938C125.008 66.938 125.024 66.9381 125.032 66.9381L125.08 66.9384C125.096 66.9385 125.103 66.9385 125.119 66.9386C125.915 66.9745 126.719 66.8753 127.492 66.6646C128.456 66.4072 129.342 65.9506 130.149 65.3664C130.843 64.8611 131.444 64.2121 131.933 63.507C132.454 62.7542 132.832 61.8974 133.052 61.0079C133.287 60.0867 133.34 59.1407 133.241 58.186C133.173 57.5416 133.009 56.9046 132.782 56.299C140.159 48.5207 147.528 40.7423 154.897 32.9639C157.873 29.8224 160.849 26.681 163.826 23.5396C164.452 25.4592 165.071 27.3709 165.698 29.2906C163.48 30.44 161.403 31.8844 159.541 33.5287C157.23 35.5683 155.26 37.9834 153.695 40.6232C152.25 43.0569 151.146 45.6594 150.432 48.3991C150.058 49.8365 149.78 51.2981 149.606 52.7763C149.397 54.5405 149.412 56.3298 149.506 58.0956C149.673 61.142 150.422 64.1517 151.497 67.0041C152.533 69.7449 154.055 72.3292 155.834 74.6445C157.707 77.0875 160.035 79.2227 162.565 80.9694C164.983 82.6359 167.689 83.9303 170.486 84.8274C173.338 85.7408 176.327 86.2096 179.319 86.2411C182.406 86.265 185.44 85.8116 188.397 84.9285C191.345 84.0452 194.074 82.6917 196.637 81.0033C199.224 79.2912 201.503 77.0765 203.433 74.6532C204.955 72.7368 206.208 70.5724 207.222 68.3432C208.47 65.5745 209.249 62.5966 209.631 59.5848C209.791 57.876 209.792 56.1584 209.721 54.4405ZM111.628 6.51379C111.229 6.61509 110.823 6.68455 110.409 6.6983C110.234 6.69739 110.067 6.66472 109.892 6.63995C109.749 6.6233 109.614 6.59875 109.479 6.56624C109.296 6.50962 109.114 6.45301 108.939 6.36463C108.907 6.34857 108.875 6.3325 108.844 6.31643C108.899 6.30081 108.955 6.27725 109.003 6.26159L109.155 6.22262C109.378 6.16812 109.609 6.1057 109.832 6.03529C109.959 5.9962 110.079 5.95706 110.199 5.90997C110.318 5.87083 110.438 5.82374 110.557 5.77665L110.661 5.73743C110.86 5.65895 111.06 5.57251 111.259 5.50198C111.387 5.45494 111.506 5.4158 111.634 5.36875C111.713 5.34531 111.793 5.31391 111.865 5.28248L112 5.23547C112.439 5.07871 112.877 4.914 113.324 4.77319L113.499 4.71844L113.674 4.66368L113.889 4.60119L114.105 4.53869L114.256 4.49176C114.408 4.44484 114.551 4.40583 114.702 4.36685C114.909 4.32022 115.164 4.25793 115.427 4.20363L115.499 4.204C115.547 4.20425 115.594 4.2045 115.642 4.1968C115.73 4.19725 115.817 4.18975 115.905 4.18226C115.665 4.3321 115.426 4.48989 115.186 4.63178C114.676 4.93925 114.173 5.26266 113.67 5.57812C113.606 5.56984 113.542 5.55361 113.471 5.55323C113.328 5.55249 113.176 5.57556 113.041 5.63052C112.746 5.74031 112.506 5.96172 112.369 6.24727C112.369 6.25523 112.369 6.25523 112.361 6.26314C112.114 6.35728 111.875 6.4435 111.628 6.51379ZM112.155 19.8995C112.886 18.5754 113.625 17.2433 114.356 15.9191C116.932 26.9379 119.501 37.9487 122.07 48.9674C122.233 49.6521 122.389 50.3368 122.552 51.0135C122.529 51.0134 122.505 51.0053 122.481 51.0052C122.043 50.9632 121.598 50.937 121.16 50.9029C120.912 48.1264 120.218 45.3953 119.237 42.79C118.201 40.0492 116.679 37.4649 114.9 35.1496C113.027 32.7145 110.699 30.5713 108.17 28.8326C107.94 28.6724 107.694 28.5359 107.456 28.3836C109.022 25.5609 110.589 22.7302 112.155 19.8995ZM126.667 52.3947C126.699 52.3949 126.731 52.395 126.763 52.3872C127.168 52.4768 127.549 52.606 127.93 52.7591C127.468 54.3709 127.014 55.9748 126.553 57.5867C126.14 55.8192 125.727 54.0597 125.315 52.2922C125.466 52.3089 125.609 52.3176 125.76 52.3343C126.055 52.3597 126.365 52.3931 126.667 52.3947ZM114.93 63.2278C114.326 63.0656 113.73 62.9035 113.134 62.7413C113.031 62.709 112.927 62.6846 112.824 62.6602C113.017 62.1841 113.187 61.7079 113.349 61.2236C113.446 60.922 113.527 60.6123 113.616 60.3106C114.347 60.4336 115.079 60.5567 115.81 60.6798C115.551 61.5373 115.26 62.3945 114.93 63.2278ZM106.948 69.4126C105.58 70.805 104.046 72.0217 102.378 73.0308C100.734 74.0004 98.9872 74.7626 97.1542 75.3097C95.3054 75.8409 93.4021 76.1411 91.4762 76.2026C91.4841 76.2027 91.5 76.2028 91.508 76.2028C91.4841 76.2027 91.4682 76.2026 91.4443 76.2025C91.4125 76.2023 91.3807 76.2021 91.3409 76.2019C91.3648 76.2021 91.3807 76.2021 91.4045 76.2023C89.8528 76.226 88.3018 76.0987 86.7755 75.8204C86.4336 75.755 86.0919 75.6817 85.7501 75.6083C85.7342 75.6082 85.7183 75.6002 85.7024 75.6001C85.6388 75.5839 85.5832 75.5677 85.5196 75.5515L85.5117 75.5514C83.676 75.0807 81.9131 74.3876 80.2388 73.4963C78.4853 72.5329 76.8682 71.3477 75.4192 69.9645C74.0337 68.6134 72.8242 67.0883 71.8143 65.437C70.7967 63.7221 70.0025 61.889 69.4396 59.9697C68.9476 58.178 68.6628 56.3317 68.6008 54.4706C68.563 52.562 68.7559 50.6545 69.1873 48.796C69.667 46.8344 70.3929 44.9536 71.349 43.1773C72.3049 41.4567 73.4749 39.8645 74.835 38.4402C74.835 38.4402 74.835 38.4402 74.843 38.4323C74.851 38.4244 74.859 38.4165 74.867 38.4086C74.859 38.4165 74.851 38.4244 74.843 38.4323C76.203 37.0398 77.7371 35.8232 79.4054 34.8141C81.0656 33.8287 82.836 33.0586 84.6929 32.5116L84.6849 32.5116C86.5337 31.9884 88.437 31.6882 90.355 31.6266C92.265 31.5888 94.1657 31.7816 96.0254 32.2127C97.8851 32.6677 99.6798 33.3529 101.378 34.2444C99.5546 37.5429 97.7312 40.8334 95.9078 44.1319C97.2441 41.1649 98.5884 38.1899 99.9247 35.2228L99.9328 35.207L100.021 35.0086C100.029 34.9848 100.029 34.9689 100.03 34.9451C100.03 34.8735 99.9826 34.8096 99.919 34.7855C99.8952 34.7774 99.8793 34.7773 99.8554 34.7772C99.7838 34.7768 99.7199 34.8242 99.6957 34.8877C97.7557 39.1955 95.8156 43.5032 93.8755 47.811C93.723 48.0806 93.5783 48.3502 93.4257 48.6198C93.1792 48.5946 92.9326 48.5775 92.6862 48.5364C92.4397 48.5033 92.1931 48.4782 91.9385 48.4689C91.9146 48.4767 91.8827 48.4925 91.8588 48.5083C91.62 48.5229 91.3811 48.5455 91.1502 48.5841L91.2293 33.3646C91.2297 33.2772 91.1426 33.2052 91.055 33.2047L91.0471 33.2047C90.9515 33.2121 90.8875 33.2913 90.887 33.3867L90.8076 48.6618C90.72 48.6852 90.6324 48.6927 90.5447 48.7241C90.0346 48.8884 89.5718 49.1405 89.1404 49.4563C86.682 44.8076 84.2235 40.1509 81.7651 35.5022C81.7335 35.4464 81.6779 35.4223 81.6222 35.422C81.5904 35.4218 81.5585 35.4296 81.5266 35.4453C81.4468 35.4926 81.4224 35.5959 81.4697 35.6836C83.936 40.3482 86.3944 45.0129 88.8608 49.6775C88.4372 50.0411 88.0768 50.4845 87.8037 50.9761C87.627 51.3012 87.4899 51.6425 87.3926 51.9918C82.6071 49.5576 77.8136 47.1312 73.0281 44.6969C73.0042 44.6888 72.9804 44.6808 72.9645 44.6807C72.9008 44.6803 72.829 44.7277 72.8048 44.7832C72.7645 44.8784 72.8118 44.9661 72.8991 45.0064C77.7005 47.4487 82.5099 49.891 87.3113 52.3254C87.2788 52.4604 87.2542 52.5955 87.2376 52.7306C87.1797 53.1597 87.1933 53.5891 87.2627 54.0189C81.5401 54.2913 75.8175 54.5638 70.0869 54.8362C69.9914 54.8436 69.9273 54.9387 69.9348 55.0262C69.9422 55.1217 70.0295 55.1778 70.117 55.1782L70.1249 55.1783C75.8555 54.9059 81.594 54.6335 87.3246 54.3611C87.348 54.4567 87.3634 54.5601 87.3947 54.6557C87.4728 54.9344 87.5908 55.1975 87.7167 55.4605C82.736 58.4484 77.7551 61.4443 72.7823 64.4322C72.7025 64.4795 72.6859 64.5987 72.7413 64.6705C72.7729 64.7184 72.8284 64.7425 72.8841 64.7428C72.916 64.743 72.9558 64.7352 72.9798 64.7115C77.9446 61.7236 82.9175 58.7356 87.8823 55.7556C88.0243 56.0029 88.1902 56.2343 88.372 56.4579C88.5697 56.6975 88.8152 56.9135 89.0609 57.1136C89.1163 57.1616 89.1798 57.1937 89.2433 57.2338C89.2512 57.2418 89.2511 57.2497 89.2591 57.2577C89.3621 57.3378 89.4731 57.402 89.5842 57.4662C89.5523 57.4819 89.5203 57.5135 89.5042 57.5532C89.4962 57.5611 89.4961 57.577 89.4881 57.5929C89.4801 57.5929 89.4802 57.5849 89.4722 57.5849C87.1135 62.8288 84.7549 68.0648 82.3882 73.3087C82.348 73.3959 82.4031 73.4996 82.4905 73.5318C82.5143 73.5399 82.5302 73.54 82.5541 73.5401C82.6257 73.5405 82.6816 73.501 82.7138 73.4296C85.0564 68.2254 87.4069 63.0212 89.7495 57.8169C89.7655 57.8011 89.7814 57.7932 89.7895 57.7773C89.8056 57.7456 89.8137 57.7139 89.8298 57.6821C89.8378 57.6583 89.83 57.6344 89.8301 57.6106C89.854 57.6186 89.8778 57.6347 89.8936 57.6427C90.0127 57.699 90.1318 57.7553 90.2588 57.8036C90.3938 57.86 90.5367 57.9164 90.6717 57.9728C90.8861 58.0614 91.1085 58.142 91.3309 58.2148C91.6568 58.2801 91.9747 58.3533 92.2926 58.4345C92.5865 58.5314 92.8964 58.6046 93.1985 58.6618C93.2144 58.6619 93.2303 58.662 93.2383 58.662C93.7151 58.7758 94.184 58.8975 94.6608 59.0113C95.3363 59.1739 96.0038 59.3523 96.6793 59.5148C97.4024 59.7015 98.1336 59.8723 98.8647 60.0669C99.1348 60.1399 99.413 60.205 99.6832 60.2779C102.378 62.2401 105.082 64.2024 107.777 66.1567C107.801 66.1806 107.848 66.2047 107.896 66.205C107.952 66.1973 108 66.1737 108.032 66.1421C108.064 66.1104 108.088 66.0549 108.088 66.0072C108.088 65.9674 108.065 65.9116 108.025 65.8796L102.476 61.851L100.661 60.5295C103.037 61.1382 105.405 61.7469 107.781 62.3716C108.909 62.6717 110.029 62.9717 111.15 63.2797C110.94 63.7319 110.723 64.176 110.482 64.6201C109.51 66.3645 108.324 67.9725 106.948 69.4126ZM105.255 32.372C106.524 33.2215 107.736 34.1661 108.869 35.2136C110.507 36.8364 111.938 38.633 113.145 40.5954C114.265 42.5415 115.154 44.5898 115.795 46.7401C116.131 47.9903 116.371 49.2479 116.539 50.5211C116.277 50.4959 116.014 50.4707 115.744 50.4534C115.235 50.4189 114.718 50.3765 114.209 50.334C114.155 50.0077 114.109 49.6735 114.047 49.3472C113.272 45.4308 111.477 41.7239 108.898 38.6729C107.514 37.0355 105.899 35.6038 104.122 34.4097C104.508 33.7199 104.885 33.046 105.255 32.372ZM113.214 53.3665C113.247 54.8378 113.128 56.3003 112.881 57.7462C106.267 56.6463 99.66 55.5385 93.0454 54.4386C93.8969 52.8924 94.7563 51.3542 95.6078 49.808C95.8941 49.8413 96.1724 49.8745 96.4586 49.9158C96.8006 49.9573 97.1506 49.9671 97.4927 49.9848C98.2325 50.0284 98.9641 50.1197 99.7038 50.1871C100.062 50.2208 100.42 50.2385 100.778 50.2643C101.183 50.2982 101.589 50.3321 101.994 50.374C102.718 50.4493 103.442 50.5008 104.166 50.5522C104.5 50.5778 104.834 50.6193 105.176 50.6529C105.55 50.6866 105.931 50.7204 106.305 50.7462C106.719 50.7802 107.125 50.8062 107.538 50.8401C107.864 50.8657 108.19 50.9071 108.524 50.9327C109.312 50.9845 110.099 51.0443 110.887 51.112C111.213 51.1455 111.539 51.179 111.865 51.1966C112.255 51.2225 112.653 51.2404 113.042 51.2663C113.042 51.2663 113.042 51.2663 113.05 51.2663C113.126 51.9665 113.186 52.6666 113.214 53.3665ZM106.42 37.8887C107.837 39.2797 109.062 40.8366 110.08 42.5277C111.026 44.1389 111.773 45.8604 112.313 47.6524C112.555 48.4965 112.742 49.3563 112.889 50.2238C112.3 50.181 111.711 50.1461 111.123 50.0954C110.423 50.0361 109.723 49.9768 109.015 49.9254C108.283 49.8739 107.552 49.7905 106.812 49.739C106.024 49.6792 105.245 49.6116 104.458 49.5359C104.131 49.5024 103.805 49.4848 103.479 49.4593C103.074 49.4333 102.676 49.3994 102.27 49.3576C101.936 49.324 101.61 49.2826 101.276 49.257C100.894 49.2232 100.513 49.2053 100.131 49.1794C99.7648 49.1537 99.3911 49.112 99.0252 49.0703L100.462 48.211C103.168 46.587 105.874 44.963 108.572 43.3389L108.731 43.2443L108.939 43.1182C108.979 43.0945 109.003 43.0628 109.019 43.0073C109.027 42.9516 109.02 42.8959 108.988 42.856C108.956 42.8081 108.901 42.776 108.837 42.7757C108.798 42.7755 108.766 42.7833 108.726 42.8069C105.597 44.6832 102.484 46.5596 99.3548 48.4359L98.4049 49.0114C98.2299 48.9946 98.0549 48.9778 97.88 48.961C97.5459 48.9354 97.2117 48.9337 96.8776 48.9081C96.6311 48.8829 96.3846 48.8499 96.1381 48.8247C98.588 44.3924 101.046 39.968 103.496 35.5356C104.535 36.2408 105.517 37.0252 106.42 37.8887ZM108.771 61.5656C107.309 61.1764 105.855 60.7951 104.393 60.4296C103.725 60.2592 103.066 60.0808 102.398 59.9103C101.675 59.7237 100.952 59.545 100.229 59.3583C98.7748 58.9771 97.3206 58.6117 95.8663 58.2463C95.0875 58.0514 94.3087 57.8644 93.5219 57.6775C93.204 57.5963 92.8941 57.5152 92.5762 57.4419C92.5603 57.4419 92.5444 57.4338 92.5285 57.4337C92.322 57.3691 92.1155 57.2964 91.9089 57.2317C91.7024 57.167 91.4879 57.1023 91.2814 57.0297C90.9001 56.8925 90.5028 56.795 90.1377 56.6182C89.8917 56.4738 89.6539 56.3056 89.4321 56.1136C89.2025 55.8897 89.0048 55.6501 88.8232 55.3788C88.6496 55.0996 88.5158 54.8126 88.406 54.5019C88.3122 54.1913 88.2501 53.8809 88.228 53.5547C88.2138 53.2127 88.2394 52.8789 88.3048 52.5453C88.3862 52.2037 88.4992 51.8783 88.66 51.5611C88.8207 51.2756 89.005 51.0142 89.2132 50.7688C89.4372 50.5314 89.685 50.3259 89.9565 50.1365C90.2359 49.963 90.5311 49.8214 90.842 49.7117C91.1607 49.6179 91.4873 49.556 91.8137 49.5259C91.8535 49.5261 91.9012 49.5263 91.941 49.5265C91.9649 49.5267 91.9808 49.5188 92.0047 49.5189C92.124 49.5275 92.2354 49.5281 92.3547 49.5366C92.5297 49.5535 92.7046 49.5782 92.8795 49.603C92.4538 50.3721 92.0281 51.1412 91.6024 51.9103C91.1525 52.727 90.7027 53.5437 90.2529 54.3525C89.9892 54.5579 89.8046 54.8591 89.7711 55.1849C89.763 55.2247 89.7627 55.2724 89.7625 55.3121C89.7593 55.9324 90.2342 56.4119 90.8464 56.5105C91.0849 56.5515 91.3155 56.5925 91.554 56.6255C91.6733 56.6421 91.7845 56.6665 91.9038 56.683C91.9197 56.6831 91.9356 56.6911 91.9595 56.6913C98.749 57.8239 105.546 58.9566 112.336 60.0892C112.117 60.8435 111.851 61.5816 111.561 62.3117C110.623 62.0683 109.701 61.809 108.771 61.5656ZM114.153 57.9596C114.531 55.7907 114.598 53.5725 114.355 51.3845C114.641 51.4098 114.927 51.4351 115.214 51.4525C115.635 51.4786 116.049 51.5046 116.47 51.5465C116.534 51.5548 116.606 51.5552 116.677 51.5635C116.722 52.0806 116.759 52.5977 116.781 53.1147C116.795 54.8641 116.651 56.6049 116.356 58.3209C115.616 58.1978 114.885 58.0747 114.153 57.9596ZM121.129 57.0337C121.328 55.3489 121.321 53.6472 121.235 51.953C121.473 51.9701 121.72 51.9873 121.958 52.0044C122.245 52.0298 122.523 52.0551 122.802 52.0804C123.393 54.6201 123.985 57.1598 124.584 59.6996C123.328 59.4863 122.072 59.281 120.816 59.0677C120.939 58.3924 121.046 57.7171 121.129 57.0337ZM127.367 58.4974C127.764 57.1159 128.154 55.7343 128.551 54.3527C128.656 53.9795 128.761 53.5984 128.875 53.2252C129.232 53.4418 129.581 53.6821 129.905 53.9542C130.222 54.25 130.507 54.5696 130.768 54.9049C129.632 56.1077 128.496 57.3025 127.367 58.4974ZM109.627 71.5258C108.011 73.1476 106.221 74.5696 104.274 75.7682C102.334 76.8873 100.277 77.7751 98.1328 78.416C96.0371 78.9777 93.9109 79.3006 91.746 79.3927C89.7407 79.4141 87.7444 79.2288 85.7731 78.8369C85.5505 78.796 85.3359 78.7471 85.1134 78.6983C84.9942 78.6659 84.867 78.6334 84.7479 78.601C84.7399 78.6009 84.732 78.5929 84.724 78.5929C84.7161 78.5928 84.7161 78.5928 84.7161 78.5928C82.666 78.0335 80.6967 77.2599 78.816 76.272C76.8246 75.1484 74.9855 73.803 73.3146 72.2437C71.7076 70.6449 70.3163 68.8883 69.1168 66.9736C67.9969 65.0435 67.1083 63.0111 66.451 60.8686C65.8653 58.7345 65.5265 56.5619 65.4425 54.3508C65.4221 52.1401 65.6562 49.9625 66.1289 47.81C66.7055 45.5785 67.5282 43.4437 68.5971 41.4057C69.7054 39.4473 71.0357 37.6332 72.5721 35.9793C74.1879 34.3496 75.9697 32.9355 77.9175 31.729C79.8489 30.6178 81.8905 29.7298 84.0265 29.073C86.154 28.4956 88.3201 28.1649 90.5167 28.0729C92.7448 28.0527 94.9478 28.2868 97.1175 28.7752C99.2074 29.3188 101.217 30.0847 103.145 31.0648C102.768 31.7388 102.398 32.4207 102.021 33.0947C101.084 32.5968 100.124 32.1545 99.131 31.7835C95.3587 30.3723 91.2389 29.9772 87.265 30.6006C83.2275 31.2238 79.3753 32.9452 76.1713 35.4811C73.0152 37.9855 70.5709 41.3205 69.0397 45.042C67.5004 48.8032 66.9934 52.9514 67.5136 56.9777C68.0262 60.9325 69.5979 64.7337 71.9524 67.9426C73.1376 69.563 74.5623 71.0176 76.1233 72.2821C77.6368 73.5066 79.3184 74.5173 81.0806 75.3375C83.0255 76.2383 85.107 76.8534 87.2219 77.1904C87.2299 77.1905 87.2457 77.1985 87.2537 77.1985C87.3093 77.2068 87.357 77.215 87.4047 77.2232C87.4127 77.2232 87.4286 77.2233 87.4366 77.2233C87.5558 77.2399 87.6672 77.2564 87.7864 77.2729C87.8182 77.281 87.8421 77.2811 87.8739 77.2813C88.7327 77.3971 89.5997 77.4572 90.4749 77.4777C90.5624 77.4781 90.6499 77.4786 90.7375 77.4791C92.679 77.4891 94.6217 77.2607 96.51 76.7934C100.342 75.8511 103.925 73.9454 106.835 71.2807C109.194 69.1301 111.069 66.4918 112.389 63.5883C113.097 63.7828 113.812 63.9694 114.519 64.164C114.245 64.7828 113.964 65.3936 113.65 65.9963C112.534 68.0103 111.187 69.8481 109.627 71.5258ZM119.324 64.4116C119.695 63.4354 120.034 62.4432 120.294 61.4267C121.94 61.6977 123.578 61.9765 125.223 62.2475C124.891 63.4068 124.559 64.574 124.227 65.7332C124.171 65.717 124.115 65.7008 124.06 65.6926C123.352 65.514 122.645 65.3194 121.938 65.117C121.064 64.8739 120.198 64.6388 119.324 64.4116ZM132.196 58.6815C132.225 59.2781 132.182 59.8743 132.068 60.47C131.937 61.0658 131.743 61.6293 131.478 62.1687C131.197 62.7079 130.852 63.2071 130.452 63.6663C130.044 64.1015 129.596 64.4888 129.101 64.8202C128.582 65.1515 128.032 65.411 127.45 65.6068C127.251 65.6694 127.051 65.7081 126.852 65.7548C126.844 65.7548 126.836 65.7547 126.828 65.7547C126.637 65.7934 126.454 65.8402 126.255 65.8471C126.303 65.8474 126.343 65.8476 126.39 65.8478C126.303 65.8474 126.215 65.8549 126.128 65.8544C126.048 65.854 125.968 65.8536 125.881 65.8531C125.738 65.8524 125.594 65.8675 125.451 65.8668C125.388 65.8665 125.332 65.8662 125.268 65.8658C125.592 64.7145 125.925 63.5712 126.249 62.4198C126.313 62.4281 126.384 62.4444 126.448 62.4527C127.02 62.5511 127.563 62.1245 127.733 61.5926C129.133 60.1208 130.526 58.6411 131.926 57.1693C132.066 57.663 132.159 58.1645 132.196 58.6815ZM162.668 21.2514C152.675 31.7913 142.681 42.3313 132.696 52.8713C132.296 53.2907 131.896 53.718 131.496 54.1374C130.903 53.4027 130.174 52.7787 129.373 52.3054C129.309 52.2653 129.238 52.2331 129.167 52.193C129.856 49.7792 130.536 47.3733 131.225 44.9595C131.607 44.9456 131.997 44.9238 132.387 44.9099C132.761 44.8959 133.058 44.5476 133.028 44.1817C133.006 43.8158 132.689 43.5437 132.331 43.5419C132.323 43.5418 132.307 43.5418 132.291 43.5417C131.893 43.5555 131.495 43.5773 131.097 43.5911C130.779 43.6054 130.46 43.6196 130.142 43.6339C129.744 43.6477 129.346 43.6695 128.94 43.6833C128.924 43.6832 128.916 43.6832 128.901 43.6831C128.813 43.6906 128.725 43.6901 128.638 43.6976C128.264 43.7116 127.968 44.0599 127.998 44.4259C128.019 44.8077 128.352 45.0877 128.734 45.0659C128.822 45.0584 128.917 45.0589 129.005 45.0514C129.013 45.0514 129.029 45.0515 129.037 45.0515C129.22 45.0445 129.395 45.0375 129.578 45.0305C129.769 45.0235 129.952 45.0165 130.143 45.0096C129.503 47.2566 128.862 49.5037 128.222 51.7507C127.833 51.5976 127.428 51.4842 127.014 51.3946C126.975 51.3785 126.935 51.3623 126.895 51.3542C126.863 51.354 126.84 51.3539 126.808 51.3537C126.76 51.3455 126.712 51.3294 126.673 51.3212C126.673 51.3292 126.673 51.3371 126.673 51.3451C126.553 51.3445 126.434 51.3438 126.314 51.3353C126.108 51.3183 125.901 51.3013 125.694 51.2764C125.495 51.2594 125.288 51.2425 125.082 51.2175C122.762 41.2895 120.442 31.3535 118.123 21.4255C117.687 19.5625 117.251 17.6995 116.815 15.8365L156.186 16.041L161.35 16.0679C161.883 17.7087 162.415 19.3496 162.956 20.9905C162.852 21.0694 162.764 21.1565 162.668 21.2514ZM204.573 62.0077C203.997 64.2392 203.174 66.374 202.105 68.4121C200.997 70.3704 199.667 72.1845 198.13 73.8385C196.514 75.4682 194.733 76.8823 192.785 78.0888C190.853 79.2 188.812 80.0879 186.676 80.7448C184.548 81.3222 182.382 81.6528 180.186 81.7448C177.957 81.765 175.755 81.5309 173.577 81.0425C171.384 80.4745 169.279 79.6604 167.271 78.6083C165.296 77.4927 163.481 76.1633 161.818 74.6199C160.179 72.9972 158.748 71.2006 157.541 69.2381C156.421 67.2921 155.533 65.2438 154.891 63.0935C154.329 60.9992 153.998 58.8743 153.914 56.711C153.894 54.4844 154.128 52.2829 154.609 50.1146C155.177 47.9228 155.984 45.8197 157.036 43.8134C158.161 41.8233 159.507 39.9775 161.067 38.3078C162.683 36.6781 164.473 35.264 166.421 34.0654C166.628 33.9472 166.836 33.8449 167.043 33.7347C167.067 33.7905 167.098 33.8463 167.13 33.9101C167.405 34.4522 167.681 34.9944 167.965 35.5446C166.496 36.3957 165.114 37.3905 163.851 38.5369C160.861 41.2648 158.623 44.7758 157.354 48.618C156.1 52.4363 155.864 56.5541 156.647 60.4944C157.423 64.4107 159.218 68.1177 161.788 71.1686C164.39 74.2516 167.799 76.6151 171.579 78.0263C175.352 79.4375 179.463 79.8326 183.445 79.2092C187.483 78.5861 191.335 76.8646 194.531 74.3287C197.687 71.8243 200.131 68.4893 201.663 64.7678C203.202 61.0066 203.709 56.8584 203.189 52.832C202.676 48.8773 201.104 45.0761 198.75 41.8672C197.565 40.2468 196.14 38.7922 194.579 37.5277C193.066 36.3032 191.384 35.2925 189.622 34.4722C187.677 33.5715 185.595 32.9564 183.48 32.6194C183.472 32.6193 183.457 32.6113 183.449 32.6112C183.393 32.603 183.345 32.5948 183.298 32.5866C183.29 32.5866 183.274 32.5865 183.266 32.5864C183.147 32.5699 183.035 32.5534 182.916 32.5369C182.884 32.5288 182.86 32.5287 182.828 32.5285C181.97 32.4127 181.103 32.3526 180.227 32.3321C180.14 32.3316 180.052 32.3312 179.965 32.3307C178.023 32.3206 176.081 32.5491 174.192 33.0164C172.79 33.359 171.419 33.8369 170.103 34.4345C169.875 33.98 169.638 33.5255 169.41 33.079C169.386 32.9835 169.363 32.88 169.324 32.7764C169.308 32.7286 169.293 32.6808 169.277 32.641C170.353 32.1695 171.454 31.7617 172.577 31.4176C174.673 30.856 176.799 30.5331 178.964 30.4409C180.969 30.4196 182.966 30.6049 184.937 30.9968C185.16 31.0377 185.374 31.0865 185.597 31.1434C185.716 31.1758 185.843 31.2083 185.962 31.2407C185.97 31.2407 185.978 31.2487 185.986 31.2488L185.994 31.2488C188.044 31.8081 190.013 32.5817 191.894 33.5696C193.886 34.6932 195.725 36.0466 197.396 37.598C199.003 39.1967 200.394 40.9533 201.593 42.868C202.713 44.7982 203.602 46.8305 204.259 48.973C204.845 51.1071 205.184 53.2798 205.268 55.4908C205.272 57.6776 205.046 59.8552 204.573 62.0077ZM180.484 54.8452C180.39 54.6618 180.295 54.4705 180.201 54.2791C180.193 54.2711 180.193 54.2632 180.185 54.2552C177.011 48.0283 173.836 41.8093 170.662 35.5824C171.595 35.1658 172.552 34.805 173.532 34.5079C175.381 33.9768 177.292 33.6766 179.21 33.615C179.202 33.615 179.186 33.6149 179.178 33.6149C179.202 33.615 179.218 33.6151 179.242 33.6152C179.274 33.6153 179.306 33.6155 179.346 33.6157C179.322 33.6156 179.306 33.6155 179.282 33.6154C180.834 33.5916 182.385 33.719 183.911 33.9973C184.253 34.0627 184.595 34.136 184.936 34.2094L184.984 34.2175C185.048 34.2338 185.103 34.25 185.167 34.2662L185.175 34.2663C187.01 34.737 188.773 35.43 190.448 36.3214C192.201 37.2847 193.818 38.47 195.267 39.8452C196.653 41.1963 197.87 42.7214 198.88 44.3807C199.898 46.0956 200.692 47.9287 201.255 49.848C201.747 51.6397 202.032 53.486 202.093 55.3471C202.131 57.2557 201.938 59.1632 201.507 61.0217C201.027 62.9833 200.301 64.8641 199.345 66.6404C198.389 68.361 197.219 69.9532 195.859 71.3775L195.851 71.3854L195.827 71.4171C195.835 71.4092 195.843 71.4013 195.851 71.3933C194.483 72.7858 192.957 74.0024 191.289 75.0116C189.629 75.9969 187.858 76.767 186.009 77.3141C184.169 77.8373 182.265 78.1375 180.347 78.1991C178.437 78.2369 176.537 78.0441 174.677 77.613C172.722 77.1416 170.832 76.4082 169.062 75.4527C167.325 74.4895 165.723 73.3122 164.282 71.937C162.865 70.546 161.64 68.9891 160.622 67.298C159.676 65.6868 158.929 63.9653 158.389 62.1733C157.858 60.3098 157.557 58.3998 157.496 56.4672C157.458 54.5585 157.659 52.6511 158.09 50.7847C158.562 48.8469 159.288 46.974 160.228 45.2136C161.192 43.4692 162.386 41.8532 163.762 40.4131C165.13 39.0286 166.656 37.812 168.316 36.8028C168.396 36.7555 168.476 36.7161 168.548 36.6768C171.754 42.9674 174.967 49.2582 178.173 55.5568C178.189 55.5887 178.205 55.6206 178.22 55.6525C178.315 55.8358 178.409 56.0272 178.512 56.2186C178.646 56.4817 178.995 56.6664 179.273 56.7155C179.591 56.7808 179.926 56.711 180.189 56.5294C180.453 56.3559 180.629 56.0785 180.695 55.7687C180.744 55.4111 180.642 55.1482 180.484 54.8452Z" fill="#4D6059"/>
<path d="M179.243 33.6231L179.211 33.623C179.235 33.6231 179.259 33.6232 179.275 33.6233C179.267 33.6152 179.251 33.6232 179.243 33.6231Z" fill="#4D6059"/>
<path d="M180.949 52.8356C180.973 52.78 181.005 52.7166 181.029 52.6531L181.029 52.6452C183.452 47.2664 185.875 41.8955 188.298 36.5168C188.339 36.4295 188.283 36.3258 188.196 36.2936C188.18 36.2855 188.156 36.2854 188.14 36.2853C188.069 36.285 188.013 36.3324 187.981 36.3958C185.525 41.8381 183.078 47.2724 180.631 52.7067C180.591 52.794 180.646 52.8976 180.733 52.9299C180.821 52.9701 180.908 52.9228 180.949 52.8356Z" fill="#4D6059"/>
<path d="M178.456 57.92C178.432 57.9119 178.416 57.9118 178.392 57.9117C178.32 57.9113 178.256 57.9587 178.232 58.0222C175.745 63.5517 173.249 69.0812 170.762 74.6107C170.762 74.6187 170.754 74.6186 170.754 74.6266L170.665 74.8249C170.657 74.8487 170.649 74.8646 170.657 74.8885C170.657 74.9521 170.704 75.016 170.768 75.0481C170.863 75.0804 170.951 75.0332 170.991 74.9539C173.51 69.3529 176.038 63.752 178.558 58.1511C178.598 58.0559 178.543 57.9522 178.456 57.92Z" fill="#4D6059"/>
<path d="M182.213 54.6313C182.268 54.7111 182.371 54.7276 182.451 54.6803C187.608 51.582 192.764 48.4837 197.912 45.3933C197.992 45.346 198.009 45.2268 197.953 45.155C197.922 45.1071 197.866 45.083 197.811 45.0827C197.779 45.0825 197.739 45.0902 197.715 45.114C192.559 48.2123 187.41 51.3106 182.254 54.4009C182.174 54.4403 182.157 54.5595 182.213 54.6313Z" fill="#4D6059"/>
<path d="M177.192 57.619C177.16 57.5711 177.105 57.547 177.049 57.5467C177.017 57.5465 176.977 57.5543 176.945 57.578C171.997 60.5501 167.048 63.5222 162.107 66.4944C162.099 66.5023 162.091 66.5023 162.083 66.5102C161.971 66.5812 161.851 66.6442 161.747 66.7152C161.668 66.7625 161.651 66.8817 161.699 66.9535C161.754 67.0333 161.857 67.0498 161.937 66.9945C167.006 63.9514 172.074 60.9083 177.143 57.8573C177.231 57.81 177.247 57.6988 177.192 57.619Z" fill="#4D6059"/>
<path d="M182.438 55.6824C182.445 55.7778 182.533 55.8419 182.628 55.8345C188.621 55.5475 194.615 55.2606 200.608 54.9816C200.703 54.9741 200.767 54.8791 200.76 54.7915C200.752 54.6961 200.665 54.64 200.578 54.6395L200.57 54.6395C194.577 54.9264 188.583 55.2133 182.59 55.4923C182.503 55.4998 182.43 55.5949 182.438 55.6824Z" fill="#4D6059"/>
<path d="M176.946 55.9243C176.939 55.8288 176.859 55.7727 176.772 55.7723C176.764 55.7722 176.764 55.7722 176.756 55.7722C170.97 56.0443 165.183 56.3244 159.397 56.5965C159.389 56.5964 159.381 56.5964 159.373 56.5964L159.262 56.6037C159.166 56.6032 159.102 56.6983 159.11 56.7938C159.117 56.8972 159.204 56.9533 159.3 56.9458C159.332 56.946 159.363 56.9462 159.395 56.9384L159.403 56.9384L159.411 56.9385C165.205 56.6664 171 56.3864 176.786 56.1143C176.889 56.1148 176.954 56.0118 176.946 55.9243Z" fill="#4D6059"/>
<path d="M182.011 56.7934C181.987 56.7853 181.963 56.7772 181.947 56.7771C181.875 56.7768 181.811 56.8242 181.787 56.8797C181.747 56.9749 181.794 57.0626 181.882 57.1028C181.897 57.1109 181.921 57.1189 181.937 57.1349C181.969 57.151 181.993 57.167 182.017 57.1751C182.024 57.1751 182.024 57.1831 182.032 57.1831C187.246 59.8343 192.453 62.4776 197.667 65.1208C197.754 65.161 197.858 65.1139 197.898 65.0345C197.938 64.9393 197.891 64.8516 197.804 64.8114C192.534 62.144 187.272 59.4687 182.011 56.7934Z" fill="#4D6059"/>
<path d="M180.555 58.1295C180.475 58.1768 180.451 58.2801 180.498 58.3678L180.514 58.3997C183.319 63.7022 186.124 69.0127 188.922 74.3153C188.961 74.395 189.08 74.4195 189.16 74.3722C189.24 74.3249 189.256 74.2216 189.217 74.1339C186.436 68.8633 183.646 63.5926 180.865 58.322C180.865 58.314 180.857 58.306 180.857 58.2981C180.841 58.2741 180.825 58.2422 180.809 58.2104C180.802 58.2024 180.802 58.1865 180.794 58.1785C180.762 58.1226 180.707 58.0985 180.651 58.0982C180.611 58.1059 180.579 58.1137 180.555 58.1295Z" fill="#4D6059"/>
<path d="M179.714 59.3021L179.706 59.3021C179.61 59.3096 179.546 59.3887 179.546 59.4842L179.545 59.5955L179.458 76.4609C179.457 76.5564 179.552 76.6284 179.64 76.6209C179.735 76.6135 179.799 76.5343 179.8 76.4389L179.888 59.47C179.888 59.3746 179.801 59.3026 179.714 59.3021Z" fill="#4D6059"/>
<path d="M178.866 49.4534C178.866 49.4455 178.866 49.4454 178.866 49.4375L177.42 35.2359C177.412 35.1484 177.341 35.0764 177.246 35.076L177.238 35.0759C177.142 35.0834 177.062 35.1625 177.078 35.258L178.554 49.7619C178.561 49.8574 178.641 49.9293 178.736 49.9219C178.832 49.9144 178.912 49.8353 178.896 49.7398C178.889 49.6682 178.881 49.5887 178.874 49.5171C178.866 49.4932 178.866 49.4773 178.866 49.4534Z" fill="#4D6059"/>
<path d="M174.759 52.716C174.798 52.74 174.83 52.7641 174.886 52.7564C174.926 52.7566 174.974 52.733 175.006 52.7014C175.038 52.6697 175.054 52.6221 175.054 52.5744C175.054 52.5346 175.031 52.4788 174.999 52.4548C174.967 52.4308 174.935 52.4068 174.904 52.3828C170.908 49.4755 166.913 46.5761 162.918 43.6688C162.886 43.6448 162.846 43.6287 162.799 43.6285L162.791 43.6284C162.751 43.6282 162.703 43.6518 162.671 43.6835C162.639 43.7151 162.623 43.7627 162.623 43.8104C162.622 43.8502 162.646 43.898 162.678 43.93L174.759 52.716Z" fill="#4D6059"/>
<path d="M111.403 52.8798C111.395 52.8798 111.395 52.8798 111.395 52.8798C111.364 52.8796 111.332 52.8794 111.292 52.8872L111.284 52.8871L111.276 52.8871C106.286 53.1236 101.295 53.3601 96.305 53.5965C96.3049 53.6045 96.3128 53.6125 96.3128 53.6204C96.3048 53.6204 96.2968 53.6283 96.2889 53.6283C96.257 53.644 96.241 53.6598 96.217 53.6836C96.1929 53.7232 96.1847 53.7629 96.1924 53.8107C96.2079 53.8982 96.2951 53.9702 96.3906 53.9548C96.4065 53.9549 96.4225 53.947 96.4384 53.9471C96.4543 53.9472 96.4703 53.9393 96.4783 53.9314C101.413 53.6946 106.356 53.4659 111.29 53.2291L111.314 53.2292L111.425 53.2218C111.521 53.2223 111.585 53.1272 111.578 53.0318C111.57 52.9363 111.491 52.8803 111.403 52.8798Z" fill="#4D6059"/>
<path d="M91.959 59.9037C91.8635 59.9112 91.7835 59.9903 91.7989 60.0858C91.8065 60.1574 91.8141 60.237 91.8216 60.3086C91.8215 60.3324 91.8214 60.3483 91.8293 60.3722C91.8292 60.3802 91.8292 60.3802 91.8292 60.3881C92.3139 65.122 92.7906 69.8558 93.2752 74.5897C93.2827 74.6772 93.354 74.7492 93.4494 74.7497L93.4574 74.7497C93.5529 74.7422 93.6329 74.6631 93.6175 74.5676C93.1254 69.7304 92.6333 64.901 92.1412 60.0637C92.1257 59.9762 92.0545 59.8963 91.959 59.9037Z" fill="#4D6059"/>
<path d="M91.3001 58.2147C91.292 58.2147 91.2759 58.2065 91.2598 58.2064C91.2759 58.2065 91.284 58.2065 91.3001 58.2147Z" fill="#4D6059"/>
<path d="M123.649 66.7243C123.641 66.7243 123.633 66.7243 123.625 66.7161C123.617 66.7161 123.617 66.7161 123.609 66.7161C123.625 66.7161 123.633 66.7243 123.649 66.7243Z" fill="#4D6059"/>
<path d="M123.538 66.6996L123.61 66.7161C123.602 66.7161 123.594 66.7079 123.586 66.7079C123.57 66.7078 123.554 66.6997 123.538 66.6996Z" fill="#4D6059"/>
<path d="M177.042 160.001C176.978 160.376 176.933 160.757 176.849 161.125C176.306 163.688 173.812 165.064 171.453 164.851C168.868 164.612 167.098 162.849 166.846 160.266C166.82 160.014 166.839 159.756 166.878 159.504C166.962 158.961 167.363 158.626 167.86 158.658C168.371 158.69 168.713 159.078 168.739 159.646C168.758 160.001 168.752 160.376 168.849 160.711C169.288 162.248 170.413 163.03 172.06 162.978C174.115 162.907 175.401 161.312 175.072 159.245C174.833 157.715 174.115 156.398 173.243 155.151C172.577 154.202 171.873 153.272 171.201 152.33C170.671 151.587 170.206 150.818 169.967 149.927C169.579 148.5 170.103 146.938 171.24 146.143C172.435 145.31 174.199 145.278 175.343 146.079C176.261 146.718 176.61 147.738 176.267 148.765C176.241 148.843 176.215 148.92 176.177 148.991C175.95 149.437 175.53 149.624 175.11 149.469C174.703 149.32 174.509 148.926 174.613 148.449C174.749 147.79 174.568 147.506 173.902 147.37C173.217 147.235 172.59 147.357 172.119 147.887C171.666 148.403 171.582 149.043 171.873 149.65C172.19 150.315 172.577 150.954 172.984 151.568C173.863 152.878 174.813 154.138 175.66 155.474C176.396 156.643 176.842 157.935 176.978 159.323C176.984 159.413 177.017 159.497 177.042 159.588C177.042 159.723 177.042 159.865 177.042 160.001Z" fill="#4D6059"/>
<path d="M156.733 164.592C155.505 164.592 154.271 164.592 153.043 164.592C152.158 164.592 151.744 164.166 151.861 163.281C152.216 160.672 152.597 158.064 152.972 155.455C153.373 152.665 153.773 149.869 154.174 147.079C154.316 146.079 154.717 145.749 155.744 145.775C158.032 145.833 160.319 145.885 162.607 145.943C162.755 145.949 162.91 145.962 163.052 146.001C163.46 146.111 163.724 146.453 163.737 146.86C163.75 147.26 163.524 147.615 163.13 147.738C162.91 147.803 162.671 147.829 162.445 147.822C160.435 147.783 158.426 147.738 156.423 147.674C156.087 147.661 155.964 147.751 155.919 148.1C155.673 149.953 155.395 151.8 155.13 153.647C155.072 154.066 155.066 154.073 155.505 154.086C156.894 154.137 158.29 154.189 159.679 154.247C159.886 154.254 160.099 154.28 160.293 154.338C160.694 154.467 160.946 154.841 160.927 155.242C160.907 155.649 160.636 156.004 160.229 156.088C159.983 156.139 159.725 156.146 159.466 156.139C158.025 156.081 156.591 156.023 155.15 155.952C154.93 155.939 154.781 155.952 154.743 156.23C154.465 158.238 154.18 160.253 153.883 162.261C153.838 162.571 153.928 162.642 154.219 162.636C156.287 162.603 158.355 162.584 160.422 162.564C160.629 162.564 160.842 162.571 161.043 162.623C161.443 162.732 161.695 163.081 161.708 163.501C161.715 163.921 161.482 164.289 161.088 164.411C160.894 164.476 160.681 164.495 160.474 164.495C159.234 164.502 157.986 164.502 156.746 164.502C156.733 164.54 156.733 164.566 156.733 164.592Z" fill="#4D6059"/>
<path d="M88.277 157.935C88.4062 154.37 89.1429 151.206 90.9715 148.365C91.8051 147.073 92.8713 146.034 94.3187 145.42C97.6724 144.006 101.362 146.37 101.42 150.005C101.427 150.573 101.356 151.142 101.297 151.703C101.278 151.884 101.207 152.065 101.116 152.227C100.948 152.511 100.671 152.633 100.348 152.595C100.005 152.549 99.7531 152.362 99.6755 152.026C99.6238 151.794 99.6497 151.549 99.6432 151.303C99.6238 150.644 99.7014 149.966 99.5592 149.334C99.2361 147.874 98.1247 147.248 96.7613 146.97C95.624 146.738 94.687 147.209 93.8535 147.906C92.8713 148.727 92.2057 149.792 91.6888 150.942C90.6808 153.182 90.1509 155.539 90.2026 158C90.222 158.884 90.3512 159.788 90.6161 160.628C91.1266 162.268 93.2267 163.411 94.8615 162.998C95.3332 162.875 95.792 162.578 96.1862 162.274C96.9163 161.706 97.4268 160.931 97.8792 160.13C97.9825 159.95 98.0795 159.762 98.2087 159.595C98.4866 159.233 98.9776 159.123 99.3654 159.317C99.7724 159.523 99.9857 160.001 99.8112 160.44C99.6626 160.815 99.4817 161.189 99.2426 161.512C98.7192 162.216 98.2087 162.952 97.5754 163.553C95.9019 165.148 93.8664 165.413 91.7857 164.405C89.8795 163.482 88.7422 161.977 88.4644 159.866C88.3674 159.149 88.3222 158.432 88.277 157.935Z" fill="#4D6059"/>
<path d="M118.182 157.928C118.317 154.377 119.047 151.219 120.87 148.384C121.71 147.08 122.782 146.027 124.243 145.414C127.609 143.993 131.305 146.402 131.331 150.05C131.338 150.592 131.273 151.141 131.215 151.677C131.196 151.858 131.131 152.045 131.04 152.2C130.866 152.497 130.588 152.633 130.246 152.581C129.903 152.536 129.651 152.342 129.58 152C129.535 151.768 129.561 151.516 129.554 151.277C129.535 150.618 129.606 149.94 129.464 149.307C129.141 147.861 128.036 147.241 126.692 146.957C125.542 146.712 124.598 147.189 123.752 147.9C122.769 148.72 122.11 149.785 121.593 150.941C120.585 153.182 120.062 155.539 120.114 157.999C120.133 158.871 120.262 159.769 120.521 160.595C121.038 162.255 123.138 163.404 124.792 162.984C125.257 162.868 125.703 162.578 126.084 162.274C126.827 161.699 127.338 160.918 127.803 160.104C127.9 159.93 127.991 159.756 128.107 159.601C128.391 159.22 128.895 159.103 129.289 159.317C129.69 159.53 129.897 160.007 129.722 160.447C129.574 160.821 129.386 161.196 129.147 161.519C128.63 162.216 128.126 162.939 127.506 163.533C125.826 165.141 123.777 165.412 121.69 164.392C119.784 163.462 118.653 161.958 118.382 159.846C118.272 159.136 118.227 158.419 118.182 157.928Z" fill="#4D6059"/>
<path d="M110.292 154.435C110.718 153.479 111.125 152.588 111.526 151.69C112.237 150.102 112.941 148.513 113.658 146.931C113.736 146.757 113.859 146.589 113.994 146.453C114.279 146.176 114.718 146.143 115.061 146.344C115.41 146.544 115.597 146.925 115.494 147.319C115.41 147.629 115.28 147.932 115.151 148.223C112.825 153.414 110.499 158.613 108.172 163.805C108.024 164.14 107.849 164.457 107.475 164.586C107.113 164.709 106.783 164.631 106.518 164.353C106.208 164.031 106.189 163.65 106.363 163.256C106.912 162.016 107.462 160.776 108.017 159.536C108.302 158.903 108.599 158.27 108.864 157.631C108.935 157.457 108.948 157.224 108.909 157.031C108.153 153.686 107.391 150.341 106.622 146.996C106.596 146.886 106.57 146.77 106.557 146.654C106.492 146.105 106.764 145.691 107.255 145.569C107.739 145.452 108.198 145.704 108.36 146.234C108.502 146.699 108.599 147.177 108.709 147.654C109.2 149.811 109.691 151.968 110.188 154.125C110.208 154.209 110.247 154.293 110.292 154.435Z" fill="#4D6059"/>
<path d="M141.677 164.592C140.449 164.592 139.215 164.592 137.987 164.592C137.102 164.592 136.689 164.166 136.805 163.281C137.173 160.582 137.567 157.883 137.955 155.184C138.343 152.484 138.731 149.785 139.118 147.086C139.144 146.905 139.176 146.718 139.235 146.544C139.377 146.111 139.777 145.853 140.197 145.898C140.637 145.949 140.992 146.292 140.999 146.763C141.005 147.131 140.947 147.499 140.895 147.867C140.21 152.659 139.525 157.444 138.828 162.235C138.776 162.577 138.866 162.655 139.196 162.648C141.251 162.616 143.306 162.597 145.36 162.577C145.567 162.577 145.78 162.584 145.981 162.636C146.388 162.745 146.633 163.094 146.646 163.514C146.653 163.934 146.42 164.302 146.026 164.424C145.832 164.489 145.619 164.508 145.412 164.508C144.171 164.515 142.924 164.515 141.684 164.515C141.677 164.541 141.677 164.566 141.677 164.592Z" fill="#4D6059"/>
<path d="M72 154.926H83.2822" stroke="#4D6059" stroke-width="3" stroke-miterlimit="10" stroke-linecap="round" stroke-linejoin="round"/>
<path d="M181.85 154.926H193.132" stroke="#4D6059" stroke-width="3" stroke-miterlimit="10" stroke-linecap="round" stroke-linejoin="round"/>
</svg>
